<svg width="684" height="292" viewBox="0 0 684 292" fill="none" xmlns="http://www.w3.org/2000/svg">
<path d="M625.914 197.469C626.196 215.406 631.815 235.765 640.641 252.129C644.924 248.351 646.749 254.999 641.117 253.832C641.413 258.297 649.068 257.297 645.71 260.29C643.162 261.285 644.907 263.242 645.201 263.327C650.574 266.429 649.425 273.991 654.908 277.497C656.068 275.487 660.659 276.6 658.203 278.923C654.791 279.632 657.354 280.837 657.551 282.354C657.821 284.338 662.646 281.926 660.202 285.787C661.976 287.322 662.938 292.638 665.67 291.324C664.265 288.259 670.722 288.668 668.517 285.354C667.888 284.438 666.612 283.973 665.177 284.377C663.742 284.782 664.394 283.356 664.077 282.79C663.214 281.314 665.874 282.129 665.3 281.117C661.748 278.429 660.059 274.074 657.169 270.237C658.01 270.637 657.006 271.187 656.808 271.456C652.727 275.478 652.196 267.111 657.169 270.237C656.798 267.982 656.115 265.599 652.749 265.782C651.066 265.873 652.085 264.183 651.469 263.615C652.734 262.985 652.999 262.749 651.965 261.046C647.193 253.784 645.252 245.703 640.999 238.06C641.84 238.461 640.836 239.011 640.638 239.28C636.558 243.302 636.026 234.934 640.999 238.06C642.104 236.147 640.322 234.925 639.559 233.422C638.829 231.938 637.815 233.248 637.075 233.415C635.465 233.974 634.694 230.852 636.432 230.665C640.114 231.643 638.17 224.46 635.668 226.417C634.546 226.875 634.045 226.628 633.705 225.284C633.256 222.644 638.097 224.661 636.403 221.131C635.886 217.049 633.01 221.434 631.918 219.018C631.633 217.876 631.486 217.24 632.916 217.215C636.263 217.361 634.277 210.622 631.733 212.725C628.602 213.171 629.729 209.138 632.937 210.565C635.3 211.376 632.992 205.048 631.884 203.771C632.725 204.172 631.721 204.722 631.523 204.99C627.442 209.012 626.912 200.645 631.884 203.771C635.17 200.013 627.239 185.738 633.621 184.788C650.938 182.583 669.346 180.791 685.16 176.952C699.631 173.954 713.934 165.676 728.578 164.904C731.207 165.997 733.191 163.677 735.536 162.735C752.921 147.26 777.724 138.552 794.37 120.567C800.34 117.211 803.719 106.603 810.965 106.832C814.997 107.204 818.038 105.429 819.797 101.938C959.965 -176.372 430.565 -535.903 166.407 -466.486C146.4 -461.229 53.1442 -439.29 11.5321 -354.245C13.0607 -343.371 5.45553 -332.205 4.56404 -318.773C0.0647922 -300.578 4.49618 -281.134 0.833991 -263.349C34.0233 -68.9609 217.195 74.3564 392.491 143.121C465.789 172.343 545.928 188.674 624.984 185.036C624.557 184.78 624.175 184.782 624.267 184.622C624.539 183.334 623.353 181.843 625.628 183.029C626.525 183.631 626.139 184.3 624.984 185.036C623.53 186.663 624.397 190.587 626.553 189.749C631.49 192.344 619.871 193.002 627.394 198.323C628.796 199.09 628.173 199.129 627.4 199.279C625.938 199.583 626.861 198.058 626.3 197.692C624.711 195.244 635.192 197.298 625.914 197.469ZM733.155 34.3086C733.546 33.5565 734.113 33.392 734.867 33.8696C735.258 33.1176 735.825 32.9528 736.579 33.4305C736.97 32.6785 737.537 32.5135 738.291 32.9912C738.682 32.2391 739.311 31.9666 741.412 32.4142C740.938 32.8634 739.284 32.9796 740.241 32.2138C740.991 31.8813 742.123 32.0752 740.003 32.5521C739.611 33.3041 739.044 33.4689 738.291 32.9912C737.899 33.7432 737.333 33.9082 736.579 33.4305C736.188 34.1826 735.621 34.3473 734.867 33.8696M301.807 -69.5963C287.698 -77.9977 276.542 -89.2131 262.681 -97.8963C193.095 -156.653 122.855 -228.915 103.641 -321.052C101.584 -325.514 104.791 -327.947 107.698 -330.606C108.541 -331.693 108.514 -333.652 110.164 -333.465C112.228 -325.597 116.805 -317.179 118.768 -308.988C217.228 -94.1362 498.44 65.5609 733.122 34.2899C633.629 65.6723 523.441 39.7944 430.132 0.209046C409.436 -5.70154 391.055 -19.2617 370.848 -27.3563C369.469 -27.3448 367.019 -28.1537 368.23 -30.7712C368.437 -31.2043 367.748 -31.0497 367.491 -31.1983C365.068 -32.1292 367.406 -33.1323 367.26 -34.6624C364.204 -37.3196 364.432 -29.0965 360.38 -32.9246C344.394 -41.0484 330.66 -52.4038 314.798 -60.6686M689.947 74.078C690.338 73.3259 690.905 73.1609 691.659 73.6386C692.05 72.8866 692.617 72.722 693.371 73.1997C693.762 72.4476 694.391 72.1749 696.492 72.6225C696.018 73.0718 694.365 73.1881 695.321 72.4224C696.071 72.0898 697.203 72.2837 695.083 72.7606C694.692 73.5126 694.125 73.6774 693.371 73.1997C692.98 73.9517 692.412 74.1163 691.659 73.6386C691.235 74.3721 690.669 74.5371 689.947 74.078ZM346.05 1.62829C345.65 0.462333 346.7 0.873941 347.054 0.780728C350.567 0.0452494 350.734 0.12887 351.94 -2.10872C359.831 -4.78099 369.666 7.7549 378.856 9.14892C471.577 55.3255 578.297 83.2744 682.005 75.2029C609.368 91.6462 530.273 75.6613 460.434 51.9653C457.16 53.1788 455.215 48.7456 451.959 49.9272M88.7271 -270.181C88.1482 -270.813 87.7774 -271.137 88.2514 -271.884C87.4931 -272.279 87.3013 -272.839 87.7754 -273.586C87.017 -273.981 86.826 -274.541 87.3001 -275.288C86.5417 -275.683 86.4862 -276.479 87.2365 -277.704C87.1444 -277.545 86.9164 -277.15 86.8244 -276.99C86.5901 -277.253 86.3593 -277.522 86.194 -277.83C86.0521 -278.847 87.3678 -278.377 86.8244 -276.99C87.5828 -276.595 87.7741 -276.035 87.3001 -275.288C88.0585 -274.893 88.2495 -274.333 87.7754 -273.586C88.5338 -273.191 88.7255 -272.63 88.2514 -271.884C89.042 -271.47 89.2012 -270.928 88.7271 -270.181C89.2969 -269.682 90.3233 -269.677 90.5158 -268.673L88.7271 -270.181ZM343.196 -8.58465C348.44 -5.55697 348.451 -5.72609 345.22 -0.27811C325.581 -3.7082 304.288 -23.7404 285.444 -34.7899C205.084 -91.3057 123.315 -164.922 92.1355 -261.076C121.932 -201.31 163.018 -145.498 214.434 -101.483C234.968 -81.2512 257.952 -61.2503 283.497 -45.9068M91.4237 -227.226C90.6653 -227.621 90.4736 -228.181 90.9476 -228.928C90.1892 -229.324 89.9277 -229.762 90.678 -230.987C90.5859 -230.828 90.564 -230.79 90.4719 -230.63C90.2376 -230.893 90.0068 -231.162 89.8415 -231.47C89.6996 -232.488 91.0154 -232.017 90.4719 -230.63C91.2303 -230.235 91.4217 -229.675 90.9476 -228.928C91.7382 -228.514 91.8977 -227.973 91.4237 -227.226ZM264.183 -21.3693C196.214 -71.4112 112.8 -139.726 91.8994 -225.524C126.866 -155.544 180.322 -92.9239 243.461 -46.1809C271.622 -23.6294 302.857 -0.830783 336.103 14.9194C334.202 17.3938 333.7 23.9846 329.537 20.6455C318.952 14.8319 308.842 8.71546 299.173 1.68729M83.9896 -224.38C83.2312 -224.776 83.0395 -225.336 83.5135 -226.083C82.7551 -226.478 82.5641 -227.038 83.0382 -227.785C81.5724 -229.184 81.5865 -230.694 82.7369 -232.241C81.9785 -232.636 81.717 -233.075 82.4673 -234.3C82.3752 -234.141 82.3533 -234.103 82.2612 -233.943C82.0269 -234.206 81.7961 -234.475 81.6308 -234.783C81.4889 -235.801 82.8046 -235.33 82.2612 -233.943C83.0196 -233.548 83.211 -232.988 82.7369 -232.241C84.2027 -230.842 84.1886 -229.331 83.0382 -227.785C83.7965 -227.389 83.9876 -226.829 83.5135 -226.083C84.2857 -225.637 84.4452 -225.095 83.9896 -224.38ZM308.056 37.2703C311.857 39.3797 315.658 41.4892 319.349 43.79C314.553 64.8753 294.007 37.0848 282.405 33.4051C260.312 19.5869 239.455 3.25784 219.157 -12.6282C218.414 -15.3534 214.878 -15.471 214.061 -17.4735C212.849 -20.4268 208.889 -20.2535 208.445 -23.5713C150.868 -75.5645 94.5528 -144.825 84.4653 -222.678C111.399 -130.464 179.359 -52.6929 256.415 1.74495M666.299 107.534C666.69 106.781 667.257 106.617 668.011 107.094C668.65 106.358 668.501 104.982 671.544 105.803C670.109 106.803 669.7 104.986 671.396 105.242C671.447 105.229 671.651 105.321 670.341 105.585C669.701 106.321 669.688 107.978 668.011 107.094C667.569 107.86 667.02 107.993 666.299 107.534C665.908 108.286 665.341 108.45 664.587 107.973C664.195 108.725 663.629 108.889 662.875 108.412C662.483 109.164 661.917 109.329 661.163 108.851C548.87 152.743 417.094 107.714 316.809 55.172C316.235 53.8627 315.816 51.6925 317.641 52.321C322.408 53.2025 321.852 48.7404 324.599 45.3941C324.083 46.8821 322.569 46.0139 321.691 46.5697C318.948 42.7753 327.198 42.1564 323.981 46.4647C359.161 64.7347 395.947 82.0057 433.154 93.7924C506.045 118.443 585.886 128.158 660.957 109.208C661.348 108.456 662.121 107.934 662.875 108.412C663.266 107.66 663.833 107.495 664.587 107.973C664.996 107.189 665.545 107.056 666.299 107.534ZM612.818 109.966C612.427 110.718 611.86 110.883 611.106 110.405C610.089 111.944 609.229 110.536 607.786 109.915C545.383 119.554 470.342 98.1069 409.58 73.996C381.622 64.6153 354.929 50.369 327.884 37.7734C325.727 38.9091 325.609 33.9876 327.834 34.8893C333.304 35.9643 332.222 26.5453 338.389 31.4665C348.651 38.2844 360.292 42.0467 370.536 48.599C394.976 58.4999 419.464 69.3575 444.723 78.5831C447.791 77.2077 449.616 81.6992 452.683 80.3238C502.76 98.3503 556.002 106.806 608.332 110.231C609.349 108.692 610.21 110.1 611.106 110.405C611.497 109.653 612.064 109.488 612.818 109.966C613.835 108.427 614.758 109.727 617.001 110.002C616.527 110.451 615.079 110.21 616.036 109.445C616.786 109.112 617.712 109.663 615.592 110.14C614.575 111.678 613.714 110.271 612.818 109.966ZM592.294 178.058C593.311 176.52 594.171 177.927 595.067 178.232C596.462 176.784 597.912 176.946 624.169 177.904C616.863 179.34 607.074 179.503 599.553 177.967C606.984 176.687 616.586 176.103 624.163 176.948C624.338 177.092 624.285 177.406 599.553 177.967C598.159 179.416 596.63 179.39 595.067 178.232C594.046 179.853 593.222 178.382 592.294 178.058C591.276 179.597 590.416 178.19 589.52 177.885C588.503 179.423 587.642 178.016 586.263 177.432C586.424 177.525 586.585 177.618 586.746 177.711C586.484 177.942 586.115 178.433 585.806 178.596C584.786 178.729 585.349 177.159 586.746 177.711C587.763 176.172 588.624 177.58 589.52 177.885C590.505 176.327 591.365 177.735 592.294 178.058ZM54.938 -136.467C56.703 -135.66 57.5088 -134.381 56.9512 -132.449C57.6956 -131.807 59.3634 -131.798 58.4888 -130.134C59.2332 -129.492 60.9006 -129.482 60.026 -127.819C62.0249 -126.155 64.0107 -124.467 63.6088 -121.468C64.3532 -120.825 66.0206 -120.816 65.146 -119.153C65.8904 -118.51 67.3521 -118.144 66.4775 -116.481C67.2219 -115.838 68.8897 -115.829 68.015 -114.165C68.7594 -113.523 70.4269 -113.514 69.5522 -111.85C70.2966 -111.208 71.9644 -111.199 71.0897 -109.535C71.8342 -108.893 73.502 -108.883 72.6273 -107.22C73.3717 -106.577 75.1982 -106.843 74.3962 -103.819C73.381 -105.256 75.1687 -105.677 74.924 -103.99C74.9377 -103.94 74.4395 -103.598 74.1645 -104.905C73.4201 -105.547 71.7527 -105.556 72.6273 -107.22C71.8829 -107.862 70.2151 -107.872 71.0897 -109.535C70.3453 -110.177 68.6776 -110.187 69.5522 -111.85C68.8078 -112.493 67.1403 -112.502 68.015 -114.165C67.2706 -114.808 65.6028 -114.817 66.4775 -116.481C65.733 -117.123 64.2713 -117.489 65.146 -119.153C64.4015 -119.795 62.7341 -119.804 63.6088 -121.468C61.6098 -123.132 59.624 -124.819 60.026 -127.819C59.2815 -128.461 57.6141 -128.47 58.4888 -130.134C57.7443 -130.776 56.0766 -130.786 56.9512 -132.449M580.626 177.984C580.152 178.433 578.704 178.192 579.661 177.427C580.411 177.094 581.543 177.288 579.423 177.765C578.405 179.304 577.339 178.253 576.443 177.948C575.426 179.487 574.565 178.079 573.669 177.774C572.652 179.313 571.792 177.905 570.895 177.6C569.878 179.139 569.018 177.731 568.122 177.426C567.104 178.965 566.244 177.557 564.865 176.974C565.026 177.067 565.187 177.16 565.348 177.252C565.085 177.484 564.922 177.618 564.614 177.78C563.593 177.914 563.95 176.701 565.348 177.252C566.365 175.714 567.225 177.121 568.122 177.426C569.139 175.888 569.999 177.295 570.895 177.6C571.913 176.062 572.772 177.469 573.669 177.774C574.686 176.235 575.546 177.643 576.443 177.948C577.478 176.377 578.364 177.741 580.626 177.984ZM312.644 18.0302C316.44 20.222 320.237 22.4139 324.033 24.6058C330.077 27.5851 328.449 28.6964 325.646 33.6261C306.555 28.1315 285.18 11.0632 267.137 -0.62978C252.918 -10.9225 235.776 -20.312 223.912 -33.199C195.73 -57.4215 165.913 -85.4995 146.241 -116.587C167.574 -94.6177 189.355 -70.3784 214.322 -51.5838C237.243 -31.2497 262.944 -12.3891 289.84 3.43689M346.595 29.0664C342.758 25.8306 335.88 26.3018 338.334 20.4904C337.935 19.9195 337.194 21.201 336.584 19.9555C337.408 11.2469 369.452 34.0561 376.081 36.0973C393.612 43.6251 411.919 50.7745 429.689 58.4828C514.752 88.5021 609.188 106.297 698.317 84.6203C626.511 130.16 474.396 85.0666 399.868 54.1134M526.198 -323.102C500.961 -337.418 474.549 -352.077 447.791 -361.233C441.384 -365.144 433.718 -366.205 427.38 -370.162C353.529 -394.75 258.093 -414.061 181.587 -388.35C151.937 -378.386 125.172 -361.732 103.53 -335.867C99.6442 -335.007 99.6547 -329.007 96.9501 -327.294C94.8023 -326.323 96.0363 -323.557 94.1878 -323.179C91.1299 -322.563 93.6932 -319.795 92.2303 -318.599C91.0481 -317.666 91.3056 -315.735 89.2043 -315.587C33.2772 -181.495 155.844 -48.6668 257.54 24.7599C274.251 35.9383 291.092 47.9294 308.86 57.7204C310.451 58.3835 311.113 59.0193 310.05 60.7866C291.324 95.8967 296.459 87.4477 264.246 68.1265C140.507 -11.4781 -20.2723 -168.69 32.3761 -330.315C101.819 -482.244 320.096 -449.513 449.25 -396.079C512.054 -372.83 571.517 -335.547 625.529 -295.731C633.382 -288.306 641.649 -282.415 650.017 -275.883C741.212 -194.148 845.243 -67.2565 801.062 62.0944C788.549 101.005 754.426 130.24 718.055 148.359C693.196 160.285 661.793 168.239 634.108 170.794C628.067 170.41 634.775 164.067 631.016 160.919C629.721 158.853 634.093 159.154 633.327 156.543C633.454 151.94 629.463 157.366 628.9 153.512C626.902 150.657 624.479 159.61 627.122 161.05C628.165 161.993 627.454 163.077 626.272 163.415C622.395 164.408 626.943 172.281 622.851 172.384C598.055 173.205 573.055 174.454 548.353 171.248C473.28 164.939 401.222 138.995 334.009 107.928C330.223 103.489 288.902 88.1284 298.117 86.7304C301.027 87.8575 301.6 85.157 302.585 83.5996C304.797 82.9633 299.085 78.2926 302.612 77.9051C306.257 78.6492 307.059 75.9976 308.528 73.2312C308.68 72.8937 309.276 71.5637 308.071 72.016C304.99 72.7459 306.67 68.0541 308.471 69.3918C311.104 71.2948 313.991 65.5521 311.684 63.1575C309.905 55.5397 330.201 71.2075 334.252 70.9525C355.866 84.4097 380.781 91.6318 403.592 102.421C518.33 144.641 714.489 164.342 754.913 15.9405C759.21 -8.59068 758.604 -32.6174 754.15 -55.8771C737.205 -144.363 664.673 -221.95 595.971 -276.632C580.181 -288.81 562.667 -300.303 545.727 -311.827M379.447 -50.9426C381.212 -48.946 374.898 -46.555 375.94 -50.5882C386.319 -46.4243 294.258 -104.294 278.088 -119.455C208.819 -177.944 144.156 -249.687 116.53 -337.879C125.919 -359.118 161.857 -373.962 183.834 -381.342C337.266 -423.381 499.001 -347.323 615.985 -252.23C616.535 -249.021 621.268 -249.862 621.711 -246.544C679.62 -196.017 730.341 -130.814 747.662 -54.8644C750.903 -33.1362 758.951 11.4718 740.822 25.4117C711.495 29.9947 681.799 33.6553 651.886 32.118C577.708 29.09 504.909 8.06858 437.507 -21.7044C418.551 -29.8848 399.864 -39.5718 381.526 -49.2668C377.968 -50.3855 383.701 -53.4068 380.562 -54.5816C376.868 -58.5853 376.952 -51.5246 373.515 -53.8919C347.381 -68.5124 291.496 -107.164 379.447 -50.9426ZM642.67 246.163C641.023 247.976 639.154 247.202 639.215 244.644C640.411 244.059 643.803 243.755 642.67 246.163ZM334.477 26.3531C336.269 29.0456 330.406 30.5063 331.034 26.7443C332.151 26.6665 333.296 25.5011 334.477 26.3531ZM344.368 9.22254C346.159 11.9151 340.297 13.3758 340.924 9.61379C342.06 9.50413 343.205 8.33866 344.368 9.22254ZM351.568 -5.17875C350.397 -7.38556 351.638 -8.86791 354.001 -8.05655C356.216 -6.39501 353.025 -5.40019 351.568 -5.17875ZM361.567 -22.7219C361.347 -23.5294 361.117 -24.2471 360.911 -25.0041C365.101 -27.1347 366.303 -22.4541 361.567 -22.7219ZM630.732 181.693C632.153 182.428 631.087 183.902 630.011 184.131C629.786 183.109 628.618 180.897 630.732 181.693ZM114.25 -54.6383C114.318 -54.3859 114.375 -54.2603 114.43 -54.0585C113.882 -54.0767 113.326 -53.9302 113.336 -54.69C113.635 -54.6875 113.951 -54.6407 114.25 -54.6383ZM503.066 169.369C502.813 169.436 502.677 169.45 502.474 169.503C502.488 168.959 502.329 168.417 503.092 168.433C503.074 168.762 503.066 169.072 503.066 169.369ZM506.342 170.309C505.947 169.656 506.477 169.555 506.96 169.238C507.355 169.891 506.806 170.024 506.342 170.309ZM93.7725 -78.8327C93.5149 -78.6838 93.2503 -78.5227 92.9743 -78.3419C92.5793 -78.9951 93.1095 -79.0961 93.5925 -79.4125C93.6475 -79.2107 93.7174 -79.0346 93.7725 -78.8327ZM530.996 173.598C530.738 173.747 530.473 173.908 530.197 174.089C529.802 173.436 530.333 173.335 530.816 173.018C530.871 173.22 530.941 173.396 530.996 173.598ZM91.4818 -81.107C91.413 -81.3593 91.3568 -81.4849 91.3018 -81.6868C91.8489 -81.6685 92.4057 -81.8148 92.396 -81.0551C92.065 -81.0761 91.7807 -81.1045 91.4818 -81.107ZM88.8315 -84.5406C89.0844 -84.6071 89.2213 -84.6213 89.4236 -84.6746C89.4095 -84.13 89.5687 -83.5885 88.8055 -83.6039C88.8241 -83.9333 88.8313 -84.243 88.8315 -84.5406ZM537.669 174.596C537.412 174.745 537.147 174.906 536.871 175.087C536.476 174.434 537.006 174.333 537.489 174.016C537.544 174.218 537.6 174.344 537.669 174.596ZM87.2813 -86.3873C87.2125 -86.6396 87.1563 -86.7652 87.1013 -86.967C87.6484 -86.9488 88.2048 -87.0953 88.1951 -86.3355C87.8963 -86.338 87.6123 -86.3662 87.2813 -86.3873ZM540.443 174.77C540.185 174.919 539.92 175.08 539.644 175.261C539.249 174.607 539.78 174.506 540.263 174.19C540.318 174.392 540.388 174.568 540.443 174.77ZM85.5187 -88.8324C85.7763 -88.9814 86.0409 -89.1425 86.3169 -89.3233C86.7119 -88.6701 86.1817 -88.5691 85.6988 -88.2526C85.6437 -88.4545 85.5554 -88.5987 85.5187 -88.8324ZM543.23 174.475C543.299 174.728 543.355 174.853 543.41 175.055C542.863 175.037 542.306 175.183 542.316 174.424C542.614 174.426 542.931 174.473 543.23 174.475ZM546.138 175.679C546.396 175.53 546.66 175.369 546.936 175.188C547.331 175.841 546.801 175.942 546.318 176.258C546.263 176.057 546.225 175.899 546.138 175.679ZM81.3175 -94.1131C81.5751 -94.262 81.8397 -94.4232 82.1157 -94.604C82.5106 -93.9507 81.9805 -93.8498 81.4975 -93.5333C81.4746 -93.7166 81.4047 -93.8927 81.3175 -94.1131ZM549.871 175.454C549.939 175.707 549.996 175.832 550.051 176.034C549.504 176.016 548.947 176.163 548.957 175.403C549.288 175.424 549.572 175.452 549.871 175.454ZM80.7588 -96.3391C80.5012 -96.1901 80.2366 -96.029 79.9606 -95.8482C79.5656 -96.5014 80.0958 -96.6024 80.5788 -96.9188C80.6338 -96.717 80.6716 -96.5595 80.7588 -96.3391ZM552.677 175.647C552.746 175.899 552.802 176.025 552.857 176.227C552.31 176.209 551.753 176.355 551.763 175.595C552.062 175.598 552.378 175.645 552.677 175.647ZM79.1889 -98.673C78.9313 -98.5241 78.6667 -98.3629 78.3907 -98.1821C77.9958 -98.8354 78.5259 -98.9363 79.0089 -99.2528C79.0823 -99.0828 79.1523 -98.9067 79.1889 -98.673ZM583.573 177.782C583.316 177.931 583.051 178.092 582.775 178.273C582.38 177.62 582.91 177.519 583.393 177.202C583.448 177.404 583.486 177.562 583.573 177.782ZM140.206 -122.926C140.118 -123.146 140.287 -123.661 140.232 -123.863C140.779 -123.844 141.336 -123.991 141.326 -123.231C141.027 -123.233 140.505 -122.923 140.206 -122.926ZM619.505 110.495C619.252 110.562 619.115 110.576 618.912 110.629C618.927 110.085 618.767 109.543 619.531 109.559C619.512 109.888 619.505 110.198 619.505 110.495Z" fill="#FFB5D9"/>
</svg>
