<svg width="586" height="760" viewBox="0 0 586 760" fill="none" xmlns="http://www.w3.org/2000/svg">
<path d="M93.0269 636.395C101.109 656.522 104.384 681.788 102.216 704.064C95.6787 701.809 96.7591 710.054 102.483 706.18C104.244 711.294 95.2517 713.675 100.392 715.478C103.695 715.424 102.669 718.403 102.381 718.632C97.8507 724.544 102.67 732.451 98.2057 738.863C95.9737 737.153 91.3817 740.49 95.2048 741.959C99.3357 741.191 97.0452 743.705 97.5362 745.486C98.1645 747.822 91.6633 747.336 96.1922 750.525C94.9354 753.046 96.352 759.413 92.6949 759.196C92.8246 755.137 85.827 758.542 86.7306 753.84C87.0025 752.531 88.2053 751.429 89.9923 751.225C91.7793 751.021 90.3863 749.729 90.4744 748.954C90.7446 746.913 88.1637 749.037 88.3292 747.647C91.0259 743.027 90.8682 737.4 92.2895 731.802C91.5404 732.633 92.9162 732.787 93.2623 732.996C99.6888 735.617 96.363 726.045 92.2895 731.802C91.6468 729.118 91.2922 726.149 95.1254 724.816C97.0419 724.149 95.1168 722.73 95.5365 721.816C93.8331 721.69 93.4275 721.549 93.7813 719.179C95.6955 708.902 94.0742 699.005 95.2315 688.542C94.4825 689.373 95.858 689.528 96.204 689.737C102.631 692.357 99.305 682.785 95.2315 688.542C93.1058 686.913 94.5184 684.737 94.6635 682.713C94.7815 680.724 96.5239 681.722 97.4268 681.571C99.4806 681.459 98.8777 677.625 96.8548 678.211C93.2127 680.983 92.015 672.086 95.7174 673.125C97.1812 673.123 97.6234 672.619 97.3722 670.965C96.636 667.817 92.1899 672.277 92.4243 667.568C91.0886 662.78 96.3436 666.356 96.429 663.162C96.2109 661.759 96.0773 660.983 94.4735 661.608C90.8153 663.3 89.8718 654.88 93.6888 656.062C97.3841 655.129 94.2414 651.147 91.3371 654.204C89.0861 656.188 88.6941 648.078 89.3291 646.148C88.5801 646.979 89.9559 647.134 90.3019 647.342C96.7285 649.963 93.4027 640.392 89.3291 646.148C83.9118 643.458 86.0601 623.921 78.509 625.777C58.1953 631.227 36.8601 637.636 17.4549 640.58C-0.0614801 643.847 -19.8622 641.149 -36.5295 646.977C-38.9454 649.396 -42.2397 647.716 -45.2922 647.737C-71.8936 638.424 -103.586 640.043 -130.54 627.594C-138.759 626.578 -147.487 616.294 -155.448 619.859C-159.763 622.116 -163.98 621.526 -167.572 618.436C-453.924 372.157 -32.7663 -270.496 293.857 -313.751C318.594 -317.027 432.7 -335.16 518.844 -259.346C522.233 -246.523 535.928 -237.548 543.208 -222.979C556.735 -204.748 560.903 -181.045 573.306 -162.888C627.348 69.0024 490.485 312.454 327.49 469.187C259.557 535.245 177.97 590.056 88.2418 622.108C88.5975 621.628 89.0234 621.455 88.8463 621.319C87.9401 620.007 88.563 617.803 86.5849 620.164C85.869 621.245 86.6115 621.814 88.2418 622.108C90.6222 623.258 91.4947 628.029 88.7008 628.079C84.4191 633.227 97.6646 628.654 91.7791 638.023C90.5772 639.518 91.2892 639.278 92.2193 639.091C93.9897 638.762 92.2485 637.484 92.7014 636.819C93.3248 633.364 82.6159 640.442 93.0269 636.395ZM-102.759 503.461C-103.547 502.801 -104.256 502.877 -104.871 503.754C-105.659 503.094 -106.367 503.169 -106.983 504.046C-107.771 503.386 -108.479 503.461 -109.094 504.338C-109.882 503.678 -110.711 503.662 -112.84 505.121C-112.102 505.405 -110.206 504.779 -111.63 504.362C-112.62 504.334 -113.79 505.067 -111.206 504.63C-110.418 505.29 -109.71 505.215 -109.094 504.338C-108.307 504.998 -107.599 504.923 -106.983 504.046C-106.195 504.706 -105.487 504.631 -104.871 503.754M328.886 190.601C340.664 174.789 347.835 157.19 359.204 141.177C409.179 43.8844 453.561 -68.7642 431.824 -180.267C432.026 -186.181 427.316 -187.43 422.834 -189.066C421.387 -189.893 420.5 -192.091 418.75 -191.128C420.135 -181.414 418.979 -169.937 420.629 -159.908C411.574 124.61 173.214 431.103 -102.732 503.426C22.74 492.973 133.315 413.793 218.68 327.04C238.957 310.998 253.076 287.484 271.785 269.23C273.327 268.612 275.675 266.592 273.102 264.226C272.668 263.838 273.509 263.696 273.726 263.412C275.987 261.268 272.914 261.217 272.361 259.445C274.519 255.086 278.115 264.359 280.835 258.24C294.832 241.881 304.808 222.947 318.601 206.488M-36.0326 528.067C-36.8204 527.407 -37.5285 527.482 -38.1441 528.359C-38.9319 527.699 -39.6406 527.775 -40.2562 528.652C-41.0439 527.992 -41.872 527.975 -44.0018 529.434C-43.2638 529.718 -41.3679 529.093 -42.7917 528.676C-43.7821 528.648 -44.9516 529.381 -42.368 528.944C-41.5802 529.604 -40.8718 529.529 -40.2562 528.652C-39.4685 529.312 -38.7597 529.236 -38.1441 528.359C-37.3293 528.983 -36.6212 528.909 -36.0326 528.067ZM312.966 290.219C312.865 288.737 311.888 289.675 311.45 289.733C307.194 290.518 307.048 290.687 304.658 288.743C294.62 289.368 289.538 307.837 279.958 313.588C198.333 407.422 92.5893 487.326 -26.6632 525.694C61.9123 510.851 142.498 456.903 209.168 398.586C213.382 398.443 213.472 392.612 217.65 392.443M472.243 -130.362C472.592 -131.331 472.853 -131.861 471.976 -132.477C472.635 -133.264 472.587 -133.976 471.709 -134.592C472.369 -135.379 472.319 -136.091 471.442 -136.707C472.101 -137.494 471.79 -138.406 470.382 -139.43C470.559 -139.294 470.997 -138.958 471.175 -138.822C471.312 -139.222 471.443 -139.627 471.483 -140.046C471.165 -141.245 469.92 -140.12 471.175 -138.822C470.515 -138.035 470.564 -137.323 471.442 -136.707C470.782 -135.92 470.832 -135.208 471.709 -134.592C471.05 -133.805 471.099 -133.093 471.976 -132.477C471.29 -131.654 471.366 -130.978 472.243 -130.362C471.842 -129.545 470.702 -129.07 470.958 -127.863L472.243 -130.362ZM311.363 277.529C306.941 283.3 306.849 283.117 312.997 287.715C333.259 274.92 347.59 242.86 363.399 221.934C426.42 122.219 483.005 2.79405 472.711 -118.653C467.511 -38.4084 447.89 42.5851 411.245 115.142C397.852 147.079 381.623 179.876 360.363 208.65M489.349 -81.237C490.008 -82.0241 489.96 -82.7364 489.082 -83.3525C489.741 -84.1396 489.827 -84.7481 488.418 -85.7714C488.596 -85.6357 488.638 -85.6033 488.815 -85.4676C488.953 -85.8677 489.084 -86.2729 489.124 -86.6919C488.806 -87.891 487.561 -86.7659 488.815 -85.4676C488.156 -84.6805 488.205 -83.9686 489.082 -83.3525C488.396 -82.5299 488.472 -81.8531 489.349 -81.237ZM393.355 227.187C445.61 140.349 506.507 26.0835 489.616 -79.1219C483.441 14.8716 453.234 109.105 404.813 190.059C384.014 228.064 359.907 267.75 330.263 300.495C333.537 302.386 337.182 309.505 340.254 303.88C349.319 292.564 357.712 281.127 365.189 268.875M498.959 -81.4597C499.618 -82.2468 499.569 -82.9591 498.692 -83.5752C499.351 -84.3624 499.302 -85.0738 498.424 -85.6899C499.401 -87.9192 498.679 -89.5971 496.674 -90.7963C497.333 -91.5835 497.419 -92.1919 496.01 -93.2152C496.187 -93.0795 496.229 -93.0472 496.406 -92.9114C496.544 -93.3115 496.675 -93.7168 496.715 -94.1357C496.397 -95.3348 495.152 -94.2097 496.406 -92.9114C495.747 -92.1243 495.796 -91.4124 496.674 -90.7963C495.696 -88.567 496.419 -86.8891 498.424 -85.6899C497.765 -84.9028 497.814 -84.1913 498.692 -83.5752C498.041 -82.7255 498.117 -82.0487 498.959 -81.4597ZM371.955 312.605C368.71 316.693 365.465 320.781 362.433 325.032C377.643 346.35 387.51 305.982 398.707 296.58C416.837 271.083 432.417 243.35 447.581 216.367C447.133 212.99 451.014 211.244 450.987 208.638C450.954 204.792 455.445 203.176 454.386 199.274C494.156 115.007 524.438 12.0649 499.226 -79.3446C512.403 35.7707 473.139 153.52 412.825 249.41M5.95975 554.567C5.17202 553.907 4.4636 553.983 3.84798 554.859C2.79118 554.331 2.31331 552.728 -0.690553 555.034C1.37543 555.493 0.979979 553.28 -0.788804 554.341C-0.851331 554.349 -1.036 554.545 0.546713 554.24C1.60352 554.769 2.39363 556.611 3.84798 554.859C4.69828 555.511 5.37127 555.409 5.95975 554.567C6.74748 555.227 7.45589 555.152 8.07155 554.275C8.85928 554.935 9.5677 554.859 10.1833 553.982C10.971 554.642 11.6795 554.567 12.2951 553.69C157.874 551.339 283.522 440.947 370.588 336.562C370.614 334.84 370.066 332.229 368.328 333.763C363.432 336.923 361.962 331.695 357.337 329.218C358.608 330.642 359.888 328.982 361.126 329.201C362.404 323.718 352.928 326.796 358.527 330.13C327.908 366.568 295.034 402.625 259.123 432.761C189.502 493.536 105.15 540.834 12.6916 553.994C11.9038 553.334 10.7989 553.106 10.1833 553.982C9.39559 553.323 8.68717 553.398 8.07155 554.275C7.24836 553.588 6.57537 553.69 5.95975 554.567ZM66.6466 532.852C67.4344 533.512 68.1428 533.437 68.7584 532.56C70.6112 533.811 70.9097 531.849 72.2262 530.498C146.221 512.743 219.735 454.556 276.105 399.922C302.843 376.693 325.895 348.618 350.113 322.222C353.046 322.503 350.873 316.962 348.818 318.984C343.23 322.681 340.026 311.685 335.463 319.988C327.228 332.277 316.028 341.788 307.689 353.773C285.111 375.974 262.927 399.265 239.121 421.087C235.062 420.955 235.133 426.796 231.073 426.664C183.754 469.634 128.429 503.38 71.7655 531.099C69.9127 529.848 69.6137 531.811 68.7584 532.56C67.9707 531.9 67.2622 531.975 66.6466 532.852C64.7938 531.601 64.3752 533.472 62.0057 534.803C62.7437 535.087 64.2431 534.158 62.8193 533.741C61.8289 533.713 61.0559 534.75 63.6395 534.313C65.4923 535.564 65.7913 533.602 66.6466 532.852ZM121.375 599.397C119.522 598.146 119.223 600.109 118.368 600.858C116.137 599.88 114.598 600.723 85.8104 613.784C94.6187 612.048 105.594 607.759 113.249 602.611C104.376 604.578 93.4108 608.313 85.3702 612.716C85.2429 612.955 85.449 613.282 113.249 602.611C115.48 603.589 117.17 602.862 118.368 600.858C120.264 602.199 120.492 600.182 121.375 599.397C123.228 600.648 123.526 598.686 124.382 597.937C126.235 599.188 126.534 597.225 127.796 595.945C127.66 596.122 127.525 596.299 127.389 596.476C127.789 596.614 128.431 596.993 128.85 597.033C130.049 596.716 128.687 595.223 127.389 596.476C125.536 595.225 125.237 597.188 124.382 597.937C122.556 596.65 122.257 598.613 121.375 599.397ZM572.46 3.28991C570.872 4.99519 570.574 6.78963 572.099 8.68864C571.571 9.74488 569.718 10.517 571.471 11.9723C570.943 13.0285 569.09 13.8002 570.843 15.2555C569.396 18.0241 567.975 20.8124 569.827 23.9731C569.299 25.0293 567.446 25.801 569.199 27.2563C568.671 28.3125 567.215 29.3884 568.967 30.8437C568.439 31.9 566.586 32.6721 568.339 34.1274C567.811 35.1836 565.959 35.9553 567.711 37.4106C567.183 38.4668 565.33 39.2389 567.083 40.6942C566.555 41.7505 564.702 42.5226 566.455 43.9778C565.927 45.0341 563.769 45.5722 566.077 48.5771C566.535 46.5118 564.347 46.8582 565.409 48.6274C565.418 48.6899 566.132 48.8437 565.827 47.2611C566.355 46.2048 568.207 45.4331 566.455 43.9778C566.983 42.9216 568.836 42.1495 567.083 40.6942C567.611 39.638 569.464 38.8659 567.711 37.4106C568.239 36.3543 570.092 35.5826 568.339 34.1274C568.867 33.0711 570.72 32.299 568.967 30.8437C569.495 29.7875 570.952 28.7116 569.199 27.2563C569.727 26.2001 571.579 25.4283 569.827 23.9731C571.273 21.2044 572.695 18.4162 570.843 15.2555C571.371 14.1993 573.223 13.4275 571.471 11.9723C571.999 10.916 573.852 10.1439 572.099 8.68864M134.332 593.985C135.069 594.27 136.569 593.34 135.145 592.923C134.155 592.895 132.985 593.628 135.569 593.192C137.422 594.443 138.117 592.784 138.972 592.035C140.825 593.286 141.124 591.323 141.98 590.574C143.832 591.825 144.131 589.863 144.986 589.113C146.839 590.364 147.138 588.402 147.993 587.652C149.846 588.904 150.145 586.941 151.407 585.661C151.272 585.838 151.136 586.015 151.001 586.192C151.401 586.33 151.646 586.405 152.065 586.445C153.264 586.128 152.298 584.938 151.001 586.192C149.148 584.94 148.849 586.903 147.993 587.652C146.141 586.401 145.842 588.364 144.986 589.113C143.134 587.862 142.835 589.824 141.98 590.574C140.127 589.323 139.828 591.285 138.972 592.035C137.084 590.756 136.736 592.681 134.332 593.985ZM357.839 293.249C354.638 297.427 351.437 301.604 348.236 305.782C342.901 311.865 345.234 312.36 350.663 316.576C369.348 301.73 385.157 272.937 399.774 251.659C410.788 233.689 425.48 215.391 432.656 195.604C452.697 155.726 472.754 110.802 480.105 67.1563C466.636 101.394 453.73 138.368 434.728 170.726C418.726 203.866 398.938 236.633 376.399 266.563M325.203 321.06C327.961 315.7 335.839 313.084 330.386 307.726C330.564 306.907 331.988 307.997 332.085 306.33C327.091 296.996 302.088 337.063 295.663 342.367C279.667 358.767 262.63 375.1 246.452 391.81C165.791 464.131 68.9707 527.104 -40.4166 543.644C60.8533 561.622 209.117 441.869 277.611 373.318M-39.6326 10.444C-18.2335 -17.0437 4.31259 -45.4514 29.8202 -67.8805C35.1227 -75.1679 43.1621 -79.8521 48.3667 -87.1583C119.086 -148.304 216.31 -213.423 313.532 -219.7C351.209 -222.133 388.807 -215.789 425.012 -196.837C429.742 -197.652 432.539 -190.957 436.352 -190.283C439.198 -190.182 439.119 -186.534 441.354 -186.957C445.047 -187.667 443.489 -183.41 445.678 -182.744C447.431 -182.244 448.048 -179.973 450.457 -180.769C575.5 -56.8073 501.207 147.269 422.345 275.584C408.972 295.68 395.833 316.741 380.632 335.773C379.171 337.239 378.731 338.25 380.742 339.735C418.029 370.328 408.356 363.253 435.179 326.998C535.693 181.727 641.119 -66.9883 506.838 -223.145C358.396 -360.82 130.677 -224.631 11.8835 -106.066C-47.163 -51.4594 -95.9194 17.268 -137.421 86.3291C-142.689 98.1944 -149.136 108.538 -155.396 119.644C-218.675 252.425 -275.109 441.417 -165.363 565.456C-133.216 603.124 -81.5365 620.134 -32.5569 623.725C0.704641 625.667 39.3941 620.192 71.4159 610.396C77.9628 607.209 67.5248 603.201 70.2365 597.974C70.7115 595.079 65.9838 597.412 65.6147 594.151C63.318 589.076 70.3018 593.303 69.1245 588.749C70.0131 584.654 76.9015 593.529 74.6334 596.342C73.9131 597.869 75.2125 598.752 76.6868 598.59C81.4682 597.927 80.0894 608.781 84.6943 607.028C112.688 596.618 141.109 586.592 167.112 571.735C247.749 530.413 315.838 468.575 376.134 403.238C378.271 396.559 417.089 360.561 406.174 363.211C403.462 365.796 401.56 363.047 399.734 361.76C396.973 362.061 401.147 354.245 397.038 355.424C393.328 357.919 391.193 355.328 388.263 352.915C387.936 352.608 386.649 351.397 388.203 351.351C391.975 350.758 387.909 346.294 386.529 348.608C384.488 351.933 378.586 346.848 380.033 343.125C378.448 333.819 363.184 360.557 358.554 362.123C340.787 386.999 316.427 406.431 296.078 428.879C188.086 528.357 -21.1053 639.915 -135.584 492.919C-151.852 467.531 -162.425 440.466 -168.354 412.499C-190.908 306.102 -146.468 186.469 -95.5688 94.1234C-83.6879 73.3338 -69.5664 52.5198 -56.099 31.9345M251.17 246.86C250.14 249.892 258.289 249.674 255.241 245.653C245.633 255.036 321.049 148.466 331.957 124.177C381.705 27.3281 420.119 -82.1946 409.595 -193.141C389.199 -212.534 342.236 -212.67 314.31 -210.861C123.791 -187.653 -20.6886 -28.9833 -106.43 130.472C-105.539 134.3 -111.203 135.525 -110.144 139.426C-150.97 222.21 -176.923 318.074 -160.656 410.664C-154.093 436.371 -142.173 489.782 -115.461 497.044C-80.6611 488.759 -45.8822 479.276 -13.2961 463.901C67.8808 426.644 139.098 369.957 200.21 305.977C217.487 288.198 233.759 268.863 249.64 249.677C253.078 246.805 245.279 246.055 248.225 243.311C250.464 237.16 253.675 245.071 256.395 240.862C278.649 212.625 322.781 144.006 251.17 246.86ZM97.1637 698.339C99.8464 699.608 101.566 697.891 100.3 695.067C98.6947 694.961 94.7756 696.172 97.1637 698.339ZM337.425 312.501C336.691 316.321 343.902 315.272 341.442 311.364C340.162 311.788 338.341 311.011 337.425 312.501ZM318.393 297.918C317.659 301.738 324.871 300.69 322.411 296.782C321.095 297.178 319.274 296.402 318.393 297.918ZM303.635 285.15C303.906 282.155 301.83 281.069 299.579 283.053C297.89 285.917 301.909 285.569 303.635 285.15ZM284.289 270.158C284.156 269.157 284.076 268.252 283.951 267.313C278.288 266.852 279.142 272.619 284.289 270.158ZM80.2765 621.006C79.0392 622.474 80.9163 623.631 82.2217 623.395C81.9931 622.152 82.2584 619.153 80.2765 621.006ZM544.725 121.614C544.766 121.926 544.763 122.092 544.796 122.342C545.396 122.072 546.084 121.981 545.718 121.139C545.386 121.278 545.056 121.474 544.725 121.614ZM216.658 548.956C216.971 548.915 217.13 548.868 217.38 548.835C217.109 548.234 217.033 547.558 216.19 547.924C216.365 548.283 216.518 548.625 216.658 548.956ZM213.45 551.5C213.584 550.591 212.947 550.721 212.261 550.588C212.127 551.497 212.8 551.395 213.45 551.5ZM556.199 85.2856C556.556 85.334 556.926 85.3928 557.318 85.4683C557.452 84.5596 556.814 84.6891 556.128 84.5569C556.161 84.8071 556.166 85.0354 556.199 85.2856ZM187.539 566.427C187.896 566.476 188.266 566.535 188.658 566.61C188.792 565.701 188.154 565.831 187.468 565.699C187.502 565.949 187.506 566.177 187.539 566.427ZM557.685 81.7036C557.644 81.3909 557.647 81.2252 557.614 80.975C557.013 81.2452 556.325 81.3364 556.691 82.1791C557.05 82.0045 557.353 81.8429 557.685 81.7036ZM559.029 76.6649C558.716 76.7062 558.557 76.753 558.307 76.786C558.577 77.3867 558.654 78.0632 559.496 77.6974C559.321 77.3386 559.168 76.9966 559.029 76.6649ZM180.576 570.588C180.932 570.636 181.302 570.695 181.694 570.771C181.828 569.862 181.191 569.992 180.505 569.859C180.538 570.11 180.534 570.275 180.576 570.588ZM559.89 73.898C559.849 73.5852 559.853 73.4195 559.819 73.1693C559.219 73.4396 558.531 73.5304 558.897 74.373C559.229 74.2338 559.532 74.0726 559.89 73.898ZM177.569 572.049C177.925 572.097 178.296 572.156 178.688 572.231C178.822 571.322 178.184 571.452 177.498 571.32C177.531 571.57 177.536 571.799 177.569 572.049ZM560.708 70.3667C560.352 70.3183 559.982 70.2595 559.59 70.1839C559.456 71.0927 560.093 70.9631 560.779 71.0953C560.746 70.8452 560.777 70.6441 560.708 70.3667ZM174.328 572.993C174.369 573.306 174.366 573.472 174.399 573.722C175 573.452 175.688 573.361 175.321 572.518C174.99 572.657 174.659 572.854 174.328 572.993ZM171.653 575.663C171.297 575.615 170.926 575.556 170.535 575.48C170.401 576.389 171.038 576.26 171.724 576.392C171.691 576.142 171.659 575.949 171.653 575.663ZM562.914 62.5602C562.558 62.5118 562.188 62.453 561.796 62.3774C561.662 63.2862 562.299 63.1566 562.985 63.2888C562.925 63.074 562.92 62.8458 562.914 62.5602ZM167.392 577.118C167.433 577.431 167.43 577.596 167.463 577.847C168.064 577.576 168.751 577.486 168.385 576.643C168.026 576.818 167.724 576.979 167.392 577.118ZM562.494 59.8232C562.851 59.8716 563.221 59.9304 563.613 60.0059C563.747 59.0972 563.109 59.2268 562.423 59.0945C562.456 59.3447 562.488 59.5376 562.494 59.8232ZM164.358 578.614C164.399 578.927 164.395 579.093 164.429 579.343C165.029 579.073 165.717 578.982 165.351 578.139C165.019 578.279 164.689 578.475 164.358 578.614ZM563.15 56.504C563.506 56.5524 563.876 56.6112 564.268 56.6867C564.402 55.778 563.765 55.9075 563.079 55.7753C563.076 55.9984 563.081 56.2266 563.15 56.504ZM130.955 595.107C131.312 595.155 131.682 595.214 132.074 595.289C132.208 594.381 131.57 594.51 130.884 594.378C130.917 594.628 130.949 594.821 130.955 595.107ZM483.857 57.332C483.851 57.0464 483.423 56.5497 483.39 56.2995C482.789 56.5698 482.101 56.661 482.467 57.5037C482.799 57.3644 483.526 57.4712 483.857 57.332ZM59.4494 536.497C59.7621 536.455 59.9212 536.409 60.1714 536.376C59.9007 535.775 59.8245 535.098 58.9819 535.464C59.1568 535.823 59.3099 536.165 59.4494 536.497Z" fill="#E2DE80"/>
</svg>
