<svg width="567" height="795" viewBox="0 0 567 795" fill="none" xmlns="http://www.w3.org/2000/svg">
<path d="M589.509 122.283C584.304 101.231 584.574 75.755 589.817 53.9929C595.977 57.131 596.054 48.8153 589.847 51.8608C588.814 46.5526 598.05 45.4381 593.21 42.9409C589.931 42.5378 591.362 39.7297 591.679 39.5428C596.987 34.3136 593.314 25.8168 598.626 20.0829C600.599 22.0853 605.61 19.4152 602.028 17.4323C597.831 17.6217 600.448 15.4482 600.21 13.6164C599.912 11.2164 606.283 12.5963 602.241 8.81159C603.836 6.4888 603.319 -0.0129373 606.91 0.708038C606.217 4.70975 613.62 2.30574 612.072 6.83737C611.621 8.09601 610.276 9.02053 608.478 8.97556C606.68 8.93051 607.88 10.403 607.685 11.1588C607.134 13.1423 609.985 11.3955 609.628 12.7495C606.315 16.9524 605.689 22.5472 603.503 27.8944C604.361 27.1752 603.02 26.8319 602.706 26.5771C596.706 23.0932 598.669 33.0325 603.503 27.8944C603.767 30.6412 603.705 33.6307 599.724 34.4212C597.733 34.8165 599.442 36.4881 598.899 37.3359C600.569 37.6955 600.951 37.8921 600.271 40.1902C596.947 50.1036 597.177 60.129 594.576 70.3319C595.433 69.6126 594.092 69.269 593.779 69.0142C587.779 65.5303 589.741 75.4699 594.576 70.3319C596.454 72.239 594.753 74.1988 594.328 76.1833C593.935 78.1364 592.348 76.908 591.433 76.9327C589.383 76.7596 589.447 80.6393 591.532 80.3394C595.524 78.0976 595.473 87.0742 591.951 85.5334C590.501 85.3333 589.993 85.7712 590.012 87.4434C590.304 90.6638 595.327 86.8613 594.44 91.4926C595.097 96.4194 590.39 92.1507 589.862 95.3018C589.883 96.7217 589.907 97.509 591.582 97.1114C595.44 95.9414 595.204 104.412 591.588 102.713C587.799 103.126 590.358 107.504 593.659 104.878C596.164 103.225 595.424 111.311 594.527 113.134C595.385 112.415 594.044 112.072 593.73 111.817C587.73 108.333 589.693 118.272 594.527 113.134C599.518 116.548 594.675 135.6 602.41 134.806C623.285 132.218 645.304 128.82 664.93 128.589C682.73 127.776 701.964 133.185 719.28 129.718C722.009 127.657 725.037 129.776 728.063 130.178C753.112 143.08 784.722 145.859 809.684 161.916C817.681 164.058 824.895 175.45 833.274 173.021C837.861 171.383 841.955 172.55 845.083 176.107C1094.42 459.617 588.006 1037.85 258.54 1035.52C233.587 1035.34 118.067 1037.52 43.299 950.526C41.7259 937.357 29.4118 926.574 24.2274 911.139C13.3662 891.212 12.5338 867.161 2.77512 847.463C-18.5049 610.329 150.875 388.144 334.076 255.459C410.534 199.43 498.948 156.429 592.262 137.093C591.843 137.52 591.397 137.632 591.554 137.791C592.269 139.216 591.346 141.313 593.633 139.248C594.492 138.276 593.836 137.61 592.262 137.093C590.065 135.626 589.864 130.78 592.638 131.116C597.593 126.61 583.841 129.308 590.972 120.842C592.37 119.528 591.631 119.668 590.684 119.724C588.885 119.805 590.432 121.312 589.891 121.907C588.793 125.243 600.382 119.714 589.509 122.283ZM764.915 281.013C765.603 281.776 766.316 281.799 767.047 281.016C767.736 281.778 768.448 281.801 769.179 281.018C769.868 281.78 770.579 281.804 771.311 281.021C771.999 281.783 772.817 281.914 775.129 280.764C774.438 280.38 772.473 280.738 773.825 281.348C774.802 281.513 776.062 280.948 773.443 281.023C772.754 280.261 772.042 280.238 771.311 281.021C770.622 280.259 769.911 280.235 769.179 281.018C768.491 280.256 767.779 280.232 767.047 281.016M293.965 531.174C280.104 545.205 270.556 561.643 257.071 575.929C194.055 665.376 134.444 770.804 140.469 884.242C139.447 890.071 143.937 891.959 148.148 894.199C149.465 895.218 150.039 897.517 151.905 896.805C151.885 886.993 154.625 875.787 154.386 865.626C202.906 585.096 481.561 314.512 764.883 281.045C639.176 274.046 518.666 337.172 422.069 411.287C399.759 424.371 382.509 445.706 361.443 461.197C359.831 461.596 357.224 463.272 359.443 465.97C359.819 466.415 358.967 466.44 358.712 466.691C356.175 468.501 359.211 468.976 359.513 470.809C356.769 474.827 354.498 465.146 350.953 470.83C334.818 485.096 322.306 502.468 306.36 516.862M702.257 247.416C702.945 248.179 703.657 248.203 704.388 247.419C705.077 248.182 705.789 248.205 706.521 247.421C707.209 248.184 708.027 248.315 710.339 247.165C709.647 246.781 707.683 247.139 709.035 247.748C710.012 247.913 711.272 247.349 708.653 247.424C707.964 246.662 707.252 246.638 706.521 247.421C705.832 246.659 705.12 246.636 704.388 247.419C703.668 246.688 702.957 246.664 702.257 247.416ZM323.58 434.715C323.474 436.197 324.571 435.402 325.013 435.406C329.337 435.217 329.505 435.07 331.602 437.326C341.629 438.095 349.23 420.507 359.517 416.135C453.394 334.492 569.219 269.979 692.649 248.471C602.869 250.922 515.566 293.207 441.436 341.744C437.243 341.303 436.343 347.065 432.181 346.655M107.379 829.226C106.899 830.137 106.567 830.626 107.35 831.358C106.587 832.046 106.537 832.758 107.32 833.49C106.558 834.178 106.508 834.89 107.291 835.621C106.529 836.309 106.709 837.256 107.962 838.464C107.806 838.305 107.418 837.912 107.261 837.753C107.069 838.13 106.883 838.513 106.785 838.923C106.934 840.154 108.323 839.212 107.261 837.753C108.024 837.064 108.074 836.353 107.291 835.621C108.053 834.933 108.103 834.221 107.32 833.49C108.082 832.801 108.133 832.089 107.35 831.358C108.144 830.638 108.163 829.957 107.379 829.226C107.89 828.473 109.085 828.16 109 826.929L107.379 829.226ZM323.403 447.505C328.585 442.401 328.65 442.595 323.201 437.191C301.357 447.06 282.708 476.83 264.143 495.369C187.871 585.41 115.233 695.862 108.544 817.565C124.849 738.811 155.539 661.31 201.915 594.518C219.618 564.741 240.249 534.503 265.303 508.945M97.2688 778.208C96.5064 778.896 96.4557 779.609 97.239 780.34C96.4766 781.028 96.307 781.619 97.5599 782.828C97.4034 782.669 97.3661 782.631 97.2095 782.472C97.0174 782.849 96.8312 783.232 96.7335 783.642C96.882 784.873 98.2712 783.931 97.2095 782.472C97.9719 781.783 98.0222 781.072 97.239 780.34C98.0332 779.62 98.0521 778.94 97.2688 778.208ZM235.208 486.024C171.389 564.801 95.1968 669.546 97.2983 776.076C116.48 683.84 159.495 594.69 218.7 521.211C244.58 486.447 273.97 450.477 307.879 422.146C304.899 419.82 302.28 412.266 298.455 417.411C287.906 427.365 278.004 437.532 268.897 448.632M87.7215 777.1C86.9591 777.788 86.9084 778.5 87.6917 779.232C86.9293 779.92 86.8793 780.632 87.6625 781.363C86.3849 783.436 86.8675 785.198 88.6864 786.663C87.924 787.351 87.7544 787.942 89.0073 789.15C88.8508 788.991 88.8135 788.953 88.6569 788.794C88.4648 789.171 88.2786 789.555 88.1809 789.964C88.3294 791.196 89.7187 790.254 88.6569 788.794C89.4193 788.106 89.4697 787.394 88.6864 786.663C89.964 784.59 89.4814 782.828 87.6625 781.363C88.4249 780.675 88.4749 779.963 87.6917 779.232C88.4545 778.48 88.4734 777.799 87.7215 777.1ZM268.276 404.387C272.057 400.787 275.839 397.187 279.433 393.396C267.334 370.179 251.95 408.795 239.555 416.559C218.056 439.303 198.772 464.614 180.004 489.241C179.978 492.648 175.892 493.84 175.557 496.425C175.055 500.239 170.383 501.218 170.889 505.229C119.791 583.186 75.4908 680.951 87.751 774.968C90.7044 659.137 145.957 547.949 219.017 461.323M664.356 215.364C665.044 216.126 665.756 216.15 666.488 215.367C667.461 216.036 667.711 217.69 671.007 215.821C669.025 215.081 669.109 217.327 671.008 216.521C671.071 216.522 671.281 216.354 669.671 216.436C668.698 215.766 668.172 213.833 666.488 215.367C665.736 214.604 665.056 214.612 664.356 215.364C663.668 214.602 662.956 214.578 662.224 215.362C661.536 214.599 660.824 214.576 660.092 215.359C659.404 214.597 658.692 214.573 657.96 215.356C513.467 197.553 373.693 289.508 272.959 380.849C272.694 382.55 272.874 385.213 274.808 383.933C280.096 381.481 280.825 386.862 285.061 389.954C284 388.369 282.502 389.836 281.306 389.448C279.279 394.702 289.09 392.964 284.01 388.887C319.396 357.034 356.965 325.869 396.716 300.99C474.111 250.426 564.219 215.248 657.61 215.001C658.298 215.763 659.361 216.142 660.092 215.359C660.781 216.121 661.493 216.145 662.224 215.362C662.944 216.156 663.624 216.147 664.356 215.364ZM601.239 228.478C600.551 227.715 599.839 227.692 599.107 228.475C597.447 226.98 596.878 228.882 595.387 230.038C519.642 237.39 438.752 284.85 375.334 331.165C345.626 350.472 318.894 375.09 291.243 397.883C288.377 397.199 289.758 402.987 292.074 401.269C298.122 398.38 299.766 409.714 305.439 402.121C315.303 391.089 327.716 383.218 337.64 372.502C363.086 353.636 388.292 333.638 414.901 315.317C418.903 316.009 419.645 310.214 423.646 310.907C476.48 274.894 535.959 249.123 595.926 229.506C597.587 231.001 598.156 229.099 599.107 228.475C599.796 229.238 600.508 229.261 601.239 228.478C602.9 229.973 603.575 228.178 606.106 227.188C605.415 226.804 603.801 227.517 605.153 228.127C606.13 228.292 607.04 227.372 604.42 227.447C602.759 225.952 602.191 227.854 601.239 228.478ZM556.293 155.004C557.954 156.499 558.523 154.597 559.474 153.973C561.547 155.251 563.188 154.628 593.513 145.674C584.549 146.175 573.083 148.906 564.787 152.945C573.847 152.224 585.225 150.041 593.8 146.793C593.959 146.573 593.801 146.221 564.787 152.945C562.714 151.668 560.939 152.154 559.474 153.973C557.783 152.383 557.276 154.349 556.293 155.004C554.632 153.509 554.064 155.411 553.113 156.035C551.452 154.539 550.883 156.442 549.455 157.535C549.614 157.379 549.773 157.222 549.932 157.066C549.554 156.874 548.972 156.409 548.562 156.312C547.331 156.46 548.472 158.127 549.932 157.066C551.592 158.561 552.161 156.659 553.113 156.035C554.742 157.561 555.31 155.659 556.293 155.004ZM26.7152 683C28.5247 681.531 29.0696 679.795 27.8233 677.703C28.4931 676.73 30.4351 676.222 28.9018 674.538C29.5717 673.565 31.5134 673.057 29.9801 671.373C31.7975 668.831 33.5926 666.267 32.1983 662.88C32.8682 661.907 34.8098 661.399 33.2765 659.715C33.9464 658.742 35.538 657.878 34.0047 656.194C34.6746 655.221 36.6166 654.713 35.0833 653.029C35.7531 652.056 37.6948 651.548 36.1615 649.864C36.8314 648.891 38.7734 648.383 37.24 646.699C37.9099 645.726 39.8519 645.218 38.3186 643.534C38.9885 642.561 41.2003 642.326 39.3321 639.031C38.5915 641.013 40.8064 640.973 40.0003 639.074C40.0008 639.011 39.3143 638.76 39.3968 640.369C38.727 641.342 36.7853 641.85 38.3186 643.534C37.6487 644.507 35.7067 645.016 37.24 646.699C36.5702 647.672 34.6282 648.181 36.1615 649.864C35.4916 650.837 33.5499 651.346 35.0833 653.029C34.4134 654.002 32.4714 654.511 34.0047 656.194C33.3348 657.167 31.7432 658.032 33.2765 659.715C32.6066 660.688 30.665 661.197 32.1983 662.88C30.3808 665.422 28.5858 667.987 29.9801 671.373C29.3102 672.346 27.3685 672.855 28.9018 674.538C28.232 675.511 26.29 676.02 27.8233 677.703M542.71 158.572C542.019 158.189 540.405 158.902 541.757 159.511C542.734 159.677 543.994 159.112 541.374 159.187C539.713 157.692 538.794 159.239 537.843 159.863C536.182 158.367 535.613 160.27 534.662 160.893C533.001 159.398 532.432 161.3 531.481 161.924C529.82 160.429 529.251 162.331 528.3 162.955C526.639 161.46 526.071 163.362 524.643 164.455C524.802 164.299 524.96 164.142 525.119 163.986C524.742 163.794 524.51 163.685 524.101 163.588C522.869 163.736 523.66 165.048 525.119 163.986C526.78 165.481 527.349 163.579 528.3 162.955C529.961 164.45 530.53 162.548 531.481 161.924C533.142 163.419 533.711 161.517 534.662 160.893C536.323 162.389 536.892 160.486 537.843 159.863C539.535 161.39 540.147 159.531 542.71 158.572ZM279.563 425.509C283.314 421.814 287.065 418.119 290.815 414.424C296.944 409.138 294.702 408.325 289.912 403.399C269.345 415.518 249.686 441.847 232.253 460.899C218.848 477.174 201.755 493.264 191.898 511.868C166.507 548.592 140.4 590.311 127.053 632.52C145.151 600.474 163.071 565.64 186.387 536.221C206.841 505.612 230.993 475.896 257.474 449.372M315.749 402.478C312.273 407.405 304.107 408.907 308.762 414.968C308.473 415.754 307.214 414.477 306.886 416.115C310.534 426.049 340.864 389.826 347.964 385.462C366.085 371.431 385.228 357.612 403.571 343.299C493.503 282.828 598.139 233.849 708.764 232.596C610.976 200.786 447.503 298.884 370.144 357.304M633.862 760.561C608.849 784.825 582.573 809.842 554.195 828.528C547.931 835.012 539.318 838.539 533.148 845.056C454.615 895.833 349.282 946.881 252.131 939.654C214.481 936.853 178.129 925.371 144.911 901.593C140.114 901.747 138.274 894.73 134.592 893.535C131.788 893.041 132.373 889.439 130.101 889.548C126.345 889.741 128.48 885.741 126.405 884.779C124.738 884.041 124.443 881.707 121.947 882.161C15.3503 742.099 117.293 550.259 213.228 434.083C229.265 416.03 245.204 396.988 262.903 380.241C264.553 378.992 265.13 378.051 263.345 376.302C230.673 340.847 239.268 349.192 207.665 381.389C87.9321 511.363 -51.0473 743.108 60.2218 916.333C188.083 1073.21 432.526 969.824 566.649 868.827C632.714 822.911 690.551 761.587 741.251 698.929C748.117 687.906 755.94 678.553 763.683 668.42C844.807 545.666 926.967 366.295 835.53 228.272C808.932 186.521 760.118 162.527 712.113 152.198C679.444 145.675 640.369 145.746 607.296 151.02C600.37 153.271 610.15 158.684 606.738 163.486C605.865 166.287 610.871 164.631 610.783 167.911C612.352 173.255 606.024 168.102 606.556 172.776C605.107 176.709 599.519 166.967 602.156 164.494C603.082 163.081 601.918 162.027 600.435 161.984C595.608 161.979 598.483 151.42 593.679 152.519C564.509 158.958 534.971 164.958 507.155 176.076C421.555 205.849 345.53 257.677 276.737 314.047C273.692 320.366 230.246 350.651 241.423 349.535C244.468 347.35 245.97 350.336 247.599 351.862C250.375 351.946 245.156 359.11 249.388 358.511C253.41 356.553 255.163 359.414 257.729 362.209C258.01 362.558 259.116 363.935 257.572 363.766C253.754 363.832 257.16 368.815 258.848 366.714C261.331 363.704 266.469 369.556 264.519 373.043C264.795 382.479 283.628 358.108 288.43 357.198C309.483 335.018 336.308 319.142 359.581 299.723C480.353 216.136 703.024 134.579 795.956 295.993C808.536 323.387 815.245 351.654 817.228 380.172C824.771 488.665 764.131 601.002 700.889 685.422C686.233 704.368 669.355 723.029 653.156 741.554M378.748 486.203C380.19 483.343 372.09 482.432 374.549 486.836C385.368 478.871 295.868 573.987 281.69 596.534C218.961 685.573 165.693 788.73 160.691 900.066C178.194 922.093 224.683 928.721 252.589 930.792C444.485 934.154 609.621 796.99 716.697 650.924C716.348 647.01 722.127 646.58 721.621 642.57C773.559 566.228 812.587 474.874 809.349 380.924C806.424 354.558 802.044 300.012 776.602 289.126C740.988 292.519 705.228 297.1 670.821 307.822C585.252 333.494 506.846 379.788 437.432 434.702C417.851 449.92 399.049 466.819 380.655 483.624C376.851 485.994 384.47 487.815 381.171 490.125C378.099 495.907 376.018 487.628 372.74 491.421C346.776 516.309 293.533 578.165 378.748 486.203ZM594.024 60.3617C591.544 58.734 589.602 60.1964 590.464 63.1685C592.039 63.4958 596.088 62.838 594.024 60.3617ZM302.456 409.265C303.714 405.583 296.427 405.625 298.32 409.835C299.646 409.593 301.341 410.614 302.456 409.265ZM319.275 426.339C320.533 422.657 313.246 422.699 315.139 426.909C316.497 426.699 318.192 427.719 319.275 426.339ZM332.115 441.026C331.431 443.955 333.336 445.317 335.84 443.664C337.911 441.06 333.883 440.85 332.115 441.026ZM349.189 458.549C349.182 459.559 349.136 460.466 349.129 461.413C354.672 462.653 354.629 456.823 349.189 458.549ZM599.997 139.286C601.426 138.004 599.728 136.598 598.403 136.652C598.456 137.914 597.777 140.847 599.997 139.286ZM70.6307 569.65C70.633 569.334 70.6598 569.171 70.6617 568.918C70.0293 569.103 69.3352 569.098 69.581 569.983C69.9287 569.891 70.2829 569.742 70.6307 569.65ZM454.923 191.784C454.607 191.781 454.443 191.806 454.191 191.804C454.375 192.436 454.357 193.117 455.242 192.871C455.119 192.491 455.015 192.131 454.923 191.784ZM458.453 189.708C458.194 190.59 458.843 190.549 459.504 190.775C459.763 189.894 459.082 189.902 458.453 189.708ZM54.2173 604.042C53.871 603.944 53.5127 603.835 53.1351 603.706C52.876 604.587 53.5255 604.547 54.1863 604.773C54.1882 604.521 54.2154 604.294 54.2173 604.042ZM486.187 178.507C485.841 178.41 485.483 178.301 485.105 178.172C484.846 179.053 485.495 179.013 486.156 179.239C486.158 178.986 486.185 178.76 486.187 178.507ZM52.2479 607.384C52.2455 607.699 52.2187 607.863 52.2168 608.115C52.8492 607.931 53.5436 607.935 53.2979 607.05C52.9184 607.174 52.5956 607.292 52.2479 607.384ZM50.2167 612.188C50.5322 612.19 50.6962 612.166 50.9486 612.168C50.764 611.536 50.7826 610.855 49.8973 611.101C50.0207 611.48 50.1247 611.84 50.2167 612.188ZM493.662 175.35C493.315 175.252 492.957 175.143 492.58 175.014C492.321 175.895 492.97 175.855 493.631 176.081C493.633 175.829 493.659 175.665 493.662 175.35ZM48.9788 614.809C48.9765 615.125 48.9497 615.288 48.9478 615.541C49.5802 615.356 50.2743 615.361 50.0285 614.476C49.6808 614.568 49.3584 614.686 48.9788 614.809ZM496.843 174.319C496.496 174.221 496.138 174.112 495.76 173.983C495.501 174.865 496.151 174.825 496.811 175.051C496.813 174.798 496.841 174.571 496.843 174.319ZM47.678 618.194C48.0243 618.291 48.3826 618.4 48.7602 618.529C49.0192 617.648 48.3698 617.688 47.709 617.462C47.7071 617.714 47.6485 617.909 47.678 618.194ZM500.184 173.831C500.186 173.516 500.213 173.352 500.215 173.1C499.582 173.284 498.888 173.28 499.133 174.165C499.481 174.073 499.836 173.923 500.184 173.831ZM503.204 171.557C503.55 171.654 503.908 171.764 504.286 171.893C504.545 171.011 503.895 171.052 503.235 170.826C503.233 171.078 503.237 171.274 503.204 171.557ZM44.4082 625.62C44.7545 625.717 45.1128 625.827 45.4904 625.956C45.7495 625.074 45.1001 625.114 44.4392 624.889C44.4691 625.11 44.4419 625.336 44.4082 625.62ZM507.626 170.706C507.628 170.39 507.655 170.227 507.657 169.974C507.024 170.159 506.33 170.153 506.576 171.038C506.956 170.915 507.278 170.798 507.626 170.706ZM44.4436 628.389C44.0972 628.291 43.7389 628.182 43.3613 628.053C43.1023 628.935 43.7517 628.894 44.4125 629.12C44.4144 628.868 44.4099 628.672 44.4436 628.389ZM510.839 169.643C510.841 169.328 510.868 169.164 510.87 168.912C510.237 169.096 509.543 169.091 509.789 169.976C510.137 169.884 510.491 169.735 510.839 169.643ZM43.333 631.585C42.9867 631.488 42.6284 631.379 42.2508 631.25C41.9917 632.131 42.6412 632.091 43.302 632.317C43.3352 632.096 43.3624 631.87 43.333 631.585ZM546.209 157.929C545.863 157.831 545.505 157.722 545.127 157.593C544.868 158.475 545.518 158.434 546.178 158.66C546.18 158.408 546.176 158.212 546.209 157.929ZM121.971 641.731C121.937 642.014 122.292 642.565 122.291 642.818C122.923 642.633 123.617 642.638 123.372 641.753C123.024 641.845 122.319 641.639 121.971 641.731ZM608.873 225.864C608.558 225.861 608.394 225.886 608.142 225.884C608.326 226.516 608.308 227.197 609.193 226.951C609.069 226.571 608.965 226.211 608.873 225.864Z" fill="#FFB5D9"/>
</svg>
