<svg width="422" height="286" viewBox="0 0 422 286" fill="none" xmlns="http://www.w3.org/2000/svg">
<path d="M-359.312 72.2893C-366.535 55.8687 -379.615 39.2861 -394.101 27.6314C-396.582 32.7754 -400.844 27.3569 -395.201 26.2473C-397.207 22.2469 -403.873 26.1403 -401.94 22.078C-399.979 20.1719 -402.346 19.0455 -402.65 19.0815C-408.806 18.3083 -410.682 10.8934 -417.096 9.7908C-417.385 12.0926 -422.048 12.8499 -420.686 9.75512C-417.817 7.77745 -420.647 7.66206 -421.417 6.3406C-422.436 4.61672 -425.946 8.71232 -425.193 4.20495C-427.423 3.47942 -430.374 -1.04627 -432.382 1.22522C-429.897 3.5043 -436.006 5.63386 -432.688 7.83212C-431.752 8.43211 -430.396 8.36564 -429.231 7.43573C-428.066 6.50582 -428.113 8.07286 -427.601 8.47115C-426.232 9.4967 -429.001 9.77817 -428.079 10.4878C-423.762 11.5868 -420.514 14.9446 -416.362 17.359C-417.293 17.3163 -416.581 16.4196 -416.502 16.0954C-414.303 10.8048 -410.566 18.3098 -416.362 17.359C-415.145 19.2934 -413.59 21.2242 -410.559 19.7493C-409.044 19.0119 -409.326 20.9646 -408.538 21.2492C-409.459 22.3211 -409.612 22.6414 -407.999 23.8089C-400.782 28.6496 -395.856 35.3433 -388.97 40.736C-389.901 40.6934 -389.189 39.7966 -389.111 39.4724C-386.911 34.1817 -383.174 41.6869 -388.97 40.736C-389.246 42.9282 -387.129 43.3623 -385.843 44.4516C-384.594 45.5364 -384.168 43.9357 -383.551 43.4936C-382.284 42.3537 -380.362 44.9317 -381.891 45.7788C-385.664 46.3069 -381.084 52.1719 -379.537 49.3971C-378.681 48.5398 -378.123 48.5727 -377.289 49.6796C-375.85 51.9386 -381.095 51.9587 -378.164 54.5537C-376.102 58.1157 -375.154 52.9576 -373.209 54.7607C-372.504 55.7029 -372.121 56.2318 -373.43 56.8098C-376.571 57.9739 -372.125 63.4138 -370.597 60.4883C-367.884 58.8621 -367.357 63.0161 -370.868 62.9462C-373.36 63.1156 -368.777 68.0516 -367.26 68.7988C-368.191 68.7561 -367.479 67.8593 -367.401 67.5351C-365.201 62.2445 -361.464 69.7496 -367.26 68.7988C-368.829 73.5377 -355.98 83.6146 -361.493 86.9674C-376.596 95.7216 -392.864 104.518 -405.949 114.194C-418.122 122.574 -428.09 135.756 -441.286 142.151C-444.133 142.165 -445.061 145.072 -446.857 146.851C-456.872 167.861 -476.35 185.513 -484.71 208.549C-488.909 213.96 -487.905 225.048 -494.672 227.649C-498.532 228.872 -500.646 231.687 -500.911 235.588C-522.061 546.483 105.385 672.333 321.886 505.823C338.284 493.213 415.712 436.796 421.051 342.267C415.421 332.838 418.096 319.596 413.703 306.871C410.787 288.357 399.156 272.157 395.628 254.345C289.587 88.0814 65.1476 27.101 -123.096 31.7711C-201.989 33.2913 -282.183 49.3475 -353.629 83.3865C-353.136 83.4565 -352.785 83.307 -352.808 83.4897C-352.558 84.7829 -350.887 85.6964 -353.444 85.4865C-354.504 85.2791 -354.407 84.5135 -353.629 83.3865C-352.921 81.323 -355.242 78.0427 -356.905 79.6524C-362.461 79.177 -352.008 74.0603 -361.007 72.0763C-362.597 71.9137 -362.038 71.6357 -361.384 71.1983C-360.154 70.3507 -360.413 72.1138 -359.754 72.2337C-357.339 73.8732 -367.796 76.0481 -359.312 72.2893ZM-394.812 264.283C-394.881 265.128 -395.34 265.5 -396.22 265.352C-396.288 266.197 -396.747 266.569 -397.627 266.422C-397.696 267.267 -398.154 267.639 -399.034 267.491C-399.103 268.336 -399.577 268.831 -401.687 269.234C-401.425 268.636 -399.945 267.887 -400.53 268.964C-401.091 269.562 -402.21 269.822 -400.441 268.56C-400.373 267.715 -399.914 267.343 -399.034 267.491C-398.965 266.646 -398.507 266.274 -397.627 266.422C-397.558 265.577 -397.1 265.205 -396.22 265.352M43.0461 192.61C59.3106 194.876 73.9448 200.882 90.0897 203.503C177.027 230.643 269.808 269.975 323.279 347.429C326.907 350.743 324.896 354.23 323.248 357.809C322.894 359.138 323.68 360.933 322.086 361.401C317.13 354.951 309.644 348.97 304.656 342.183C130.519 182.395 -190.632 144.375 -394.775 264.288C-315.264 196.747 -203.671 177.825 -102.312 178.088C-80.9452 175.502 -58.7417 180.864 -36.9774 180.481C-35.7107 179.935 -33.1392 179.729 -33.2391 182.612C-33.262 183.091 -32.6865 182.681 -32.3916 182.718C-29.7978 182.636 -31.563 184.468 -30.8344 185.821C-26.9868 187.084 -30.3891 179.594 -25.1682 181.549C-7.28239 182.831 9.78252 187.965 27.6085 189.425M-370.429 210.861C-370.498 211.706 -370.956 212.078 -371.836 211.93C-371.905 212.775 -372.364 213.147 -373.244 212.999C-373.312 213.844 -373.786 214.34 -375.896 214.743C-375.634 214.145 -374.155 213.395 -374.739 214.473C-375.301 215.07 -376.42 215.331 -374.651 214.068C-374.582 213.223 -374.124 212.851 -373.244 212.999C-373.175 212.154 -372.716 211.782 -371.836 211.93C-371.73 211.09 -371.272 210.718 -370.429 210.861ZM-25.3738 144.143C-24.5532 145.062 -25.6804 145.09 -25.9706 145.314C-28.9228 147.355 -29.1086 147.343 -29.3516 149.873C-35.5871 155.399 -49.5168 147.664 -58.5274 149.946C-161.902 143.381 -271.103 159.047 -363.547 206.741C-302.987 163.392 -223.889 147.422 -150.328 142.152C-147.782 139.763 -144.269 143.093 -141.727 140.741M317.278 294.759C318.057 295.116 318.524 295.27 318.377 296.143C319.23 296.213 319.624 296.654 319.477 297.527C320.329 297.597 320.722 298.039 320.575 298.911C321.428 298.981 321.788 299.692 321.572 301.113C321.595 300.93 321.652 300.477 321.675 300.295C321.992 300.446 322.31 300.604 322.581 300.824C323.107 301.707 321.712 301.784 321.675 300.295C320.822 300.225 320.428 299.783 320.575 298.911C319.723 298.841 319.33 298.399 319.477 297.527C318.624 297.457 318.23 297.015 318.377 296.143C317.488 296.068 317.131 295.631 317.278 294.759C316.559 294.52 315.611 294.913 315.044 294.063L317.278 294.759ZM-18.7794 152.447C-24.7876 151.692 -24.7325 151.853 -23.8694 145.578C-4.43838 141.116 22.9607 151.312 44.616 154.181C140.612 175.073 244.545 211.178 310.603 287.69C259.944 244.176 200.415 208.688 135.946 188.082C109.168 177.407 80.2228 167.895 50.7254 163.67M298.119 256.218C298.972 256.288 299.366 256.73 299.219 257.602C300.071 257.672 300.483 257.974 300.267 259.395C300.29 259.212 300.295 259.169 300.318 258.986C300.636 259.137 300.953 259.295 301.225 259.515C301.751 260.398 300.356 260.475 300.318 258.986C299.466 258.916 299.072 258.474 299.219 257.602C298.33 257.527 297.972 257.09 298.119 256.218ZM59.0009 133.56C141.065 153.295 244.455 183.876 297.02 254.834C237.632 203.914 164.06 166.953 87.7286 148.383C53.0225 138.53 15.3865 129.644 -21.3659 128.033C-20.5749 125.015 -22.6704 118.746 -17.5373 120.207C-5.52572 121.456 6.16558 123.169 17.8046 125.893M303.866 250.71C304.718 250.779 305.113 251.221 304.966 252.094C305.818 252.164 306.211 252.605 306.064 253.478C307.958 254.198 308.532 255.596 308.072 257.468C308.924 257.538 309.335 257.841 309.12 259.261C309.142 259.078 309.148 259.035 309.171 258.852C309.489 259.003 309.806 259.161 310.078 259.381C310.604 260.264 309.208 260.341 309.171 258.852C308.319 258.782 307.925 258.34 308.072 257.468C306.178 256.747 305.604 255.35 306.064 253.478C305.212 253.408 304.819 252.966 304.966 252.094C304.081 251.983 303.724 251.545 303.866 250.71ZM-4.19389 96.5478C-8.51567 96.0792 -12.8374 95.6105 -17.1317 94.9226C-20.8967 73.6292 8.82539 91.2656 20.9464 90.1532C46.6704 94.3125 72.2307 101.265 97.1036 108.027C98.8462 110.25 102.15 108.986 103.68 110.514C105.943 112.766 109.526 111.069 111.223 113.954C184.467 139.522 263.251 181.492 302.767 249.325C242.151 174.796 149.332 129.502 57.1879 109.243M-361.621 170.849C-361.69 171.694 -362.148 172.066 -363.028 171.918C-363.332 172.845 -362.66 174.055 -365.784 174.479C-364.849 173.001 -363.767 174.517 -365.43 174.939C-365.471 174.971 -365.695 174.966 -364.59 174.214C-364.286 173.287 -364.917 171.755 -363.028 171.918C-362.918 171.041 -362.464 170.706 -361.621 170.849C-361.552 170.004 -361.094 169.632 -360.214 169.78C-360.145 168.935 -359.686 168.563 -358.806 168.71C-358.738 167.866 -358.279 167.494 -357.399 167.641C-270.948 83.6031 -132.026 73.9517 -19.2096 83.4474C-18.1725 84.4313 -16.9433 86.2684 -18.869 86.3976C-23.6047 87.4356 -21.3608 91.3322 -22.5935 95.4825C-22.6956 93.9109 -20.963 94.1231 -20.369 93.2699C-16.3688 95.7023 -23.7316 99.4749 -22.4394 94.2558C-61.9523 91.0736 -102.558 89.4356 -141.422 93.0152C-218.167 98.591 -295.518 120.629 -357.348 167.232C-357.416 168.077 -357.926 168.858 -358.806 168.71C-358.875 169.555 -359.334 169.927 -360.214 169.78C-360.287 170.661 -360.741 170.997 -361.621 170.849ZM-313.278 147.848C-313.209 147.003 -312.75 146.631 -311.87 146.779C-311.53 144.966 -310.192 145.93 -308.62 145.941C-254.852 112.836 -177.37 103.474 -112.013 102.109C-82.606 99.9021 -52.4762 102.67 -22.6625 103.781C-21.1153 101.897 -19.0963 106.386 -21.4967 106.419C-26.9557 107.552 -22.3021 115.812 -29.8958 113.671C-42 111.371 -54.188 112.422 -66.1723 110.36C-92.5392 110.722 -119.322 110.221 -146.181 111.523C-148.475 113.981 -151.9 110.55 -154.193 113.008C-207.34 115.833 -259.69 128.707 -309.246 145.863C-309.587 147.676 -310.926 146.712 -311.87 146.779C-311.939 147.624 -312.398 147.996 -313.278 147.848C-313.618 149.661 -314.972 148.821 -317.147 149.439C-316.884 148.841 -315.457 148.501 -316.041 149.578C-316.603 150.175 -317.67 150.027 -315.902 148.765C-315.561 146.952 -314.222 147.915 -313.278 147.848ZM-320.793 77.128C-321.133 78.9409 -322.473 77.9775 -323.417 78.0444C-324.14 79.9206 -325.539 80.3341 -350.11 89.6433C-343.933 85.4832 -334.975 81.5339 -327.448 80.0301C-333.799 84.094 -342.423 88.3593 -349.733 90.5213C-349.95 90.457 -350.023 90.1466 -327.448 80.0301C-326.725 78.1538 -325.306 77.5844 -323.417 78.0444C-323.105 76.1538 -321.775 77.1903 -320.793 77.128C-320.453 75.3151 -319.114 76.2785 -318.17 76.2115C-317.83 74.3986 -316.49 75.3621 -314.993 75.3646C-315.177 75.3415 -315.362 75.3183 -315.546 75.2952C-315.394 74.9802 -315.244 74.3839 -315.023 74.1148C-314.134 73.5955 -314.044 75.2611 -315.546 75.2952C-315.886 77.1081 -317.225 76.1446 -318.17 76.2115C-318.473 78.0291 -319.812 77.0657 -320.793 77.128ZM296.515 158.412C294.576 158.354 293.336 157.488 293.101 155.491C292.165 155.188 290.624 155.827 290.785 153.955C289.849 153.651 288.309 154.29 288.47 152.418C285.981 151.66 283.496 150.876 282.702 147.955C281.767 147.652 280.227 148.291 280.387 146.418C279.452 146.115 277.962 146.345 278.123 144.473C277.187 144.169 275.647 144.808 275.807 142.936C274.872 142.633 273.332 143.271 273.492 141.399C272.556 141.096 271.016 141.735 271.176 139.862C270.241 139.559 268.7 140.198 268.861 138.325C267.925 138.022 266.345 138.976 265.91 135.878C267.404 136.808 265.92 137.89 265.49 136.24C265.458 136.199 265.785 135.691 266.545 136.788C267.481 137.091 269.021 136.452 268.861 138.325C269.796 138.628 271.337 137.989 271.176 139.862C272.112 140.165 273.652 139.526 273.492 141.399C274.427 141.702 275.968 141.063 275.807 142.936C276.743 143.239 278.283 142.6 278.123 144.473C279.058 144.776 280.548 144.546 280.387 146.418C281.323 146.721 282.863 146.083 282.702 147.955C285.191 148.713 287.676 149.497 288.47 152.418C289.405 152.721 290.945 152.082 290.785 153.955C291.72 154.258 293.261 153.619 293.101 155.491M-310.011 72.6677C-309.749 72.0698 -308.321 71.7295 -308.906 72.8066C-309.468 73.404 -310.586 73.6647 -308.818 72.4024C-308.478 70.5894 -307.087 71.144 -306.142 71.0771C-305.802 69.2641 -304.463 70.2276 -303.519 70.1607C-303.178 68.3477 -301.839 69.3112 -300.895 69.2442C-300.555 67.4313 -299.216 68.3948 -298.271 68.3278C-297.931 66.5149 -296.592 67.4783 -295.095 67.4809C-295.279 67.4577 -295.463 67.4346 -295.647 67.4114C-295.495 67.0965 -295.397 66.9091 -295.176 66.64C-294.287 66.1207 -294.145 67.3774 -295.647 67.4114C-295.987 69.2244 -297.327 68.2609 -298.271 68.3278C-298.611 70.1408 -299.951 69.1773 -300.895 69.2442C-301.235 71.0572 -302.574 70.0938 -303.519 70.1607C-303.859 71.9736 -305.198 71.0102 -306.142 71.0771C-306.487 72.9265 -307.832 72.0136 -310.011 72.6677ZM-0.954024 116.06C-5.30348 115.514 -9.65314 114.967 -14.0026 114.421C-20.7293 114.021 -19.6598 112.365 -18.9898 106.734C0.73708 104.387 27.0607 111.821 48.228 115.593C65.3272 119.56 84.7702 121.559 100.705 128.831C136.08 140.215 174.458 154.517 204.655 175.531C176.467 163.565 146.985 149.681 116.68 142.051C87.6636 132.209 56.6564 124.803 25.7263 120.658M-36.5267 119.068C-31.7345 120.56 -25.5787 117.456 -25.5849 123.765C-24.995 124.136 -24.8102 122.667 -23.7639 123.578C-21.143 131.924 -59.5284 123.341 -66.4296 124.033C-85.5081 123.901 -105.155 124.418 -124.524 124.211C-214.569 129.564 -308.509 149.821 -382.234 204.394C-333.736 134.553 -176.044 117.066 -95.3448 116.663M-65.3499 513.338C-36.5349 516.735 -6.50368 519.993 21.7099 518.044C29.1326 519.162 36.6095 517.164 43.9862 518.351C121.591 512.345 217.04 493.097 277.568 439.706C301.025 419.015 319.227 393.277 329.133 361.04C332.38 358.739 330.041 353.213 331.869 350.585C333.471 348.856 331.26 346.786 332.817 345.72C335.396 343.966 331.959 342.41 332.843 340.739C333.571 339.42 332.584 337.741 334.463 336.789C333.956 191.502 169.441 116.664 47.2169 88.4693C27.4778 84.6536 7.30273 80.1397 -12.8732 78.0134C-14.5963 78.0196 -15.4537 77.6909 -15.1599 75.6495C-11.5299 36.0233 -12.9831 45.8032 24.2042 51.1056C169.14 76.4382 378.336 158.915 392.552 328.304C387.527 495.275 173.659 549.837 33.8911 550.725C-33.0132 553.677 -102.286 542.398 -167.517 526.67C-177.636 522.875 -187.542 520.655 -197.79 517.883C-313.56 477.954 -458.688 401.393 -468.18 265.035C-471.752 224.318 -451.652 184.131 -425.166 153.314C-406.885 132.674 -381.032 113.154 -356.509 100.053C-350.793 98.0623 -354.513 106.511 -349.827 107.954C-347.831 109.355 -351.978 110.775 -350.258 112.883C-348.588 117.176 -347.017 110.626 -345.002 113.959C-342.052 115.814 -343.294 106.623 -346.289 106.321C-347.616 105.858 -347.381 104.583 -346.423 103.812C-343.236 101.392 -350.484 95.9023 -346.753 94.2184C-324.219 83.8368 -301.664 72.9823 -277.655 66.349C-206.019 43.0224 -129.54 38.9621 -55.5381 41.5037C-50.3261 44.1254 -6.28288 42.2426 -14.2326 47.1078C-17.3516 47.1985 -16.8314 49.9097 -17.1346 51.7273C-18.9261 53.1723 -11.8495 55.2598 -14.9493 56.9858C-18.5978 57.7151 -18.3076 60.4701 -18.5871 63.5896C-18.5961 63.9595 -18.6297 65.4169 -17.6948 64.5323C-15.1387 62.6637 -14.8652 67.6396 -17.0447 67.106C-20.2102 66.3743 -20.6411 72.7871 -17.5859 74.0987C-12.9895 80.4286 -37.7755 73.8673 -41.4097 75.6746C-66.5531 71.6625 -92.3172 74.6773 -117.528 73.5886C-239.658 79.2156 -428.084 137.201 -407.734 289.657C-402.172 313.932 -392.288 335.84 -379.155 355.547C-329.191 430.518 -232.231 473.868 -147.69 497.595C-128.411 502.689 -107.809 506.483 -87.7241 510.527M-35.7469 205.555C-38.1478 204.4 -33.2577 199.746 -32.6522 203.867C-43.8337 204.059 63.4721 221.657 84.2589 229.352C170.8 256.368 258.24 297.386 317.932 367.94C317.524 391.158 290.166 418.787 272.776 434.12C147.692 532.418 -30.8837 525.103 -175.607 482.874C-177.359 480.13 -181.394 482.742 -183.091 479.857C-256.072 455.77 -328.125 415.367 -373.569 352.096C-384.99 333.329 -409.722 295.343 -398.425 275.459C-373.176 259.851 -347.229 244.951 -319.066 234.757C-249.528 208.755 -174.278 199.87 -100.603 201.146C-79.9583 201.327 -58.9769 203.001 -38.3128 204.818C-34.5995 204.468 -38.711 209.478 -35.3617 209.342C-30.4032 211.598 -33.2216 205.123 -29.1346 205.971C0.624882 209.301 67.1311 223.229 -35.7469 205.555ZM-393.656 33.9175C-392.841 31.6074 -390.818 31.5947 -389.881 33.9762C-390.756 34.9797 -393.765 36.5759 -393.656 33.9175ZM-24.3061 116.865C-27.0022 115.079 -22.1664 111.457 -21.2846 115.168C-22.2842 115.673 -22.8869 117.191 -24.3061 116.865ZM-26.7716 136.491C-29.4676 134.705 -24.6318 131.083 -23.7501 134.794C-24.7542 135.336 -25.357 136.854 -26.7716 136.491ZM-27.8168 152.558C-25.881 154.137 -26.4497 155.985 -28.9421 156.155C-31.6284 155.483 -29.0742 153.328 -27.8168 152.558ZM-30.2229 172.607C-29.7066 173.266 -29.2164 173.838 -28.7324 174.456C-31.7668 178.046 -34.6911 174.198 -30.2229 172.607ZM-357.629 88.6987C-359.223 88.5727 -358.813 86.8003 -357.91 86.1714C-357.306 87.0267 -355.372 88.6112 -357.629 88.6987ZM210.092 106.022C209.93 105.816 209.83 105.723 209.701 105.558C210.212 105.362 210.668 105.011 210.954 105.715C210.678 105.829 210.368 105.909 210.092 106.022ZM-235.189 50.5013C-234.982 50.3418 -234.861 50.2756 -234.696 50.148C-234.497 50.6554 -234.14 51.0926 -234.85 51.3747C-234.96 51.0639 -235.074 50.7756 -235.189 50.5013ZM-238.573 50.907C-237.955 51.3557 -238.405 51.6545 -238.727 52.1336C-239.344 51.6849 -238.89 51.3496 -238.573 50.907ZM238.355 120.371C238.534 120.134 238.715 119.883 238.9 119.609C239.517 120.058 239.068 120.357 238.746 120.836C238.616 120.671 238.484 120.536 238.355 120.371ZM-262.57 57.4451C-262.391 57.2079 -262.209 56.9567 -262.025 56.6829C-261.408 57.1316 -261.857 57.4305 -262.179 57.9096C-262.308 57.7449 -262.441 57.6098 -262.57 57.4451ZM241.348 121.578C241.51 121.784 241.61 121.878 241.739 122.043C241.228 122.238 240.772 122.589 240.486 121.885C240.799 121.776 241.072 121.692 241.348 121.578ZM245.124 123.714C244.916 123.873 244.796 123.939 244.63 124.067C244.432 123.56 244.075 123.122 244.784 122.84C244.895 123.151 245.008 123.44 245.124 123.714ZM-269.108 59.1159C-268.928 58.8787 -268.747 58.6275 -268.563 58.3537C-267.945 58.8024 -268.395 59.1013 -268.717 59.5804C-268.846 59.4157 -268.946 59.3218 -269.108 59.1159ZM247.269 124.814C247.431 125.02 247.531 125.114 247.66 125.278C247.149 125.474 246.693 125.825 246.407 125.121C246.683 125.007 246.956 124.923 247.269 124.814ZM-271.732 60.0323C-271.552 59.7951 -271.37 59.544 -271.186 59.2702C-270.569 59.7189 -271.018 60.0177 -271.34 60.4968C-271.469 60.3322 -271.603 60.197 -271.732 60.0323ZM249.843 126.383C249.663 126.62 249.482 126.872 249.298 127.145C248.68 126.697 249.129 126.398 249.452 125.919C249.581 126.083 249.718 126.182 249.843 126.383ZM-274.186 61.3854C-274.347 61.1796 -274.448 61.0856 -274.577 60.921C-274.065 60.7254 -273.609 60.3745 -273.323 61.0784C-273.599 61.1922 -273.909 61.2717 -274.186 61.3854ZM-277.333 61.4054C-277.512 61.6426 -277.694 61.8938 -277.878 62.1676C-278.495 61.7189 -278.046 61.4201 -277.724 60.941C-277.595 61.1056 -277.499 61.2361 -277.333 61.4054ZM255.764 129.619C255.585 129.856 255.403 130.108 255.219 130.381C254.602 129.933 255.051 129.634 255.373 129.155C255.466 129.315 255.598 129.45 255.764 129.619ZM-280.686 63.0609C-280.847 62.855 -280.948 62.7611 -281.077 62.5964C-280.566 62.4009 -280.11 62.0498 -279.824 62.7538C-280.137 62.8629 -280.409 62.9471 -280.686 63.0609ZM257.143 131.454C257.323 131.216 257.504 130.965 257.688 130.692C258.306 131.14 257.856 131.439 257.534 131.918C257.405 131.753 257.309 131.623 257.143 131.454ZM-283.347 63.9726C-283.508 63.7668 -283.609 63.6728 -283.738 63.5082C-283.226 63.3126 -282.77 62.9616 -282.485 63.6656C-282.761 63.7793 -283.07 63.8589 -283.347 63.9726ZM259.496 132.995C259.675 132.758 259.857 132.507 260.041 132.233C260.659 132.682 260.209 132.981 259.887 133.46C259.753 133.332 259.62 133.196 259.496 132.995ZM-312.65 73.9977C-312.47 73.7604 -312.289 73.5092 -312.105 73.2355C-311.487 73.6842 -311.936 73.983 -312.259 74.4621C-312.388 74.2974 -312.484 74.1669 -312.65 73.9977ZM212.677 179.031C212.843 179.2 212.888 179.739 213.017 179.904C212.506 180.1 212.049 180.451 211.763 179.747C212.04 179.633 212.401 179.145 212.677 179.031ZM-319.645 149.956C-319.438 149.796 -319.318 149.73 -319.152 149.602C-318.953 150.11 -318.596 150.547 -319.306 150.829C-319.417 150.518 -319.53 150.23 -319.645 149.956Z" fill="#E2DE80"/>
</svg>
