<svg width="430" height="675" viewBox="0 0 430 675" fill="none" xmlns="http://www.w3.org/2000/svg">
<path d="M519.822 107.587C515.197 88.9968 515.403 66.4917 520.008 47.2615C525.454 50.026 525.511 42.6801 520.032 45.3779C519.113 40.6901 527.27 39.6943 522.991 37.4943C520.095 37.1422 521.355 34.6599 521.635 34.4944C526.317 29.8687 523.062 22.3673 527.747 17.2957C529.492 19.0622 533.916 16.6974 530.749 14.9501C527.042 15.1226 529.351 13.1993 529.138 11.5816C528.873 9.46179 534.502 10.6731 530.927 7.33466C532.333 5.28085 531.868 -0.461944 535.041 0.170578C534.434 3.7064 540.971 1.57374 539.608 5.57875C539.211 6.69112 538.025 7.50946 536.437 7.47187C534.848 7.43429 535.91 8.73364 535.739 9.40146C535.254 11.1543 537.771 9.60772 537.457 10.8042C534.536 14.521 533.989 19.464 532.065 24.1902C532.822 23.5538 531.637 23.2522 531.359 23.0276C526.055 19.9573 527.801 28.7349 532.065 24.1902C532.301 26.6164 532.251 29.2573 528.735 29.9604C526.977 30.312 528.489 31.7866 528.01 32.5361C529.486 32.8517 529.823 33.0249 529.225 35.0558C526.301 43.8171 526.517 52.6728 524.232 61.6889C524.989 61.0525 523.804 60.7506 523.526 60.5259C518.222 57.4556 519.968 66.2335 524.232 61.6889C525.894 63.3712 524.393 65.1046 524.02 66.8581C523.675 68.584 522.272 67.5008 521.464 67.5237C519.653 67.3733 519.715 70.8003 521.556 70.5329C525.08 68.5477 525.046 76.4774 521.933 75.1206C520.652 74.9456 520.204 75.333 520.222 76.8102C520.484 79.6546 524.916 76.2895 524.139 80.3817C524.725 84.733 520.562 80.968 520.099 83.7522C520.119 85.0064 520.142 85.702 521.621 85.3487C525.028 84.3104 524.829 91.7931 521.633 90.2965C518.287 90.6662 520.552 94.5304 523.465 92.2071C525.676 90.7435 525.033 97.8874 524.243 99.4991C524.999 98.8627 523.814 98.5611 523.537 98.3364C518.232 95.2662 519.979 104.044 524.243 99.4991C528.656 102.508 524.401 119.344 531.233 118.634C549.67 116.322 569.117 113.294 586.453 113.065C602.177 112.325 619.174 117.081 634.465 113.997C636.873 112.172 639.551 114.041 642.225 114.392C664.368 125.759 692.295 128.175 714.365 142.329C721.433 144.211 727.819 154.266 735.218 152.11C739.268 150.657 742.886 151.683 745.653 154.821C966.261 404.961 519.636 916.369 228.594 914.713C206.551 914.588 104.508 916.654 38.3516 839.894C36.9455 828.263 26.0542 818.753 21.4553 805.124C11.836 787.535 11.0707 766.29 2.42567 748.902C-16.6681 539.451 132.679 342.975 294.347 225.541C361.817 175.954 439.866 137.861 522.272 120.667C521.902 121.044 521.508 121.144 521.647 121.284C522.28 122.542 521.467 124.395 523.485 122.568C524.243 121.709 523.662 121.121 522.272 120.667C520.329 119.373 520.145 115.092 522.596 115.386C526.968 111.4 514.823 113.799 521.111 106.312C522.345 105.149 521.692 105.274 520.856 105.325C519.267 105.399 520.635 106.728 520.158 107.254C519.192 110.203 529.423 105.304 519.822 107.587ZM674.967 247.59C675.576 248.263 676.205 248.282 676.85 247.589C677.459 248.262 678.088 248.282 678.734 247.589C679.343 248.261 679.971 248.282 680.616 247.589C681.226 248.261 681.948 248.376 683.989 247.357C683.378 247.019 681.643 247.338 682.838 247.874C683.701 248.019 684.813 247.519 682.5 247.588C681.891 246.916 681.262 246.896 680.616 247.589C680.007 246.916 679.379 246.896 678.734 247.589C678.124 246.916 677.495 246.896 676.85 247.589M259.258 469.147C247.031 481.558 238.617 496.092 226.723 508.728C171.168 587.819 118.641 681.023 124.105 781.222C123.21 786.373 127.179 788.035 130.901 790.009C132.066 790.908 132.576 792.938 134.224 792.307C134.193 783.639 136.6 773.736 136.376 764.76C178.887 516.891 424.704 277.527 674.938 247.618C563.884 241.588 457.509 297.499 372.271 363.087C352.58 374.672 337.368 393.54 318.778 407.25C317.355 407.604 315.054 409.088 317.018 411.469C317.35 411.861 316.598 411.884 316.373 412.106C314.134 413.709 316.816 414.125 317.085 415.743C314.667 419.295 312.648 410.747 309.524 415.772C295.289 428.394 284.258 443.755 270.189 456.489M619.575 217.988C620.184 218.66 620.812 218.681 621.458 217.988C622.067 218.66 622.696 218.68 623.341 217.987C623.95 218.66 624.673 218.774 626.714 217.756C626.103 217.418 624.368 217.736 625.563 218.273C626.426 218.417 627.538 217.917 625.225 217.987C624.616 217.314 623.987 217.294 623.341 217.987C622.732 217.314 622.103 217.295 621.458 217.988C620.821 217.343 620.192 217.323 619.575 217.988ZM285.298 383.903C285.207 385.212 286.175 384.509 286.565 384.511C290.384 384.339 290.533 384.209 292.388 386.199C301.247 386.866 307.939 371.32 317.02 367.446C399.846 295.211 502.082 238.081 611.088 218.931C531.783 221.206 454.715 258.665 389.292 301.632C385.588 301.247 384.8 306.338 381.123 305.982M94.8066 732.664C94.3836 733.469 94.0904 733.901 94.7832 734.547C94.1106 735.156 94.0667 735.785 94.7595 736.43C94.0869 737.039 94.0437 737.668 94.7365 738.313C94.0639 738.922 94.2248 739.758 95.3331 740.824C95.1946 740.683 94.8516 740.336 94.7131 740.196C94.5438 740.529 94.3799 740.868 94.2941 741.23C94.4268 742.318 95.6528 741.484 94.7131 740.196C95.3857 739.587 95.4293 738.958 94.7365 738.313C95.4091 737.704 95.4523 737.075 94.7595 736.43C95.4321 735.821 95.476 735.192 94.7832 734.547C95.4838 733.91 95.4994 733.309 94.8066 732.664C95.2566 731.997 96.312 731.72 96.235 730.632L94.8066 732.664ZM285.158 395.201C289.729 390.686 289.787 390.858 284.967 386.09C265.683 394.835 249.246 421.156 232.87 437.555C165.606 517.187 101.578 614.845 95.8211 722.361C110.126 652.773 137.139 584.273 178.024 525.215C193.625 498.889 211.811 472.153 233.911 449.546M85.8117 687.608C85.1391 688.217 85.0952 688.847 85.788 689.492C85.1154 690.101 84.9663 690.623 86.0746 691.689C85.9361 691.549 85.9031 691.515 85.7646 691.375C85.5953 691.708 85.4314 692.047 85.3456 692.409C85.4783 693.497 86.7043 692.663 85.7646 691.375C86.4372 690.766 86.4808 690.137 85.788 689.492C86.4886 688.855 86.5045 688.254 85.8117 687.608ZM207.298 429.335C151.02 499.002 83.8458 591.623 85.835 685.725C102.665 604.224 140.551 525.419 192.759 460.438C215.577 429.697 241.495 397.886 271.413 372.819C268.778 370.768 266.455 364.098 263.083 368.648C253.776 377.454 245.041 386.446 237.011 396.263M77.3765 686.641C76.7039 687.25 76.66 687.879 77.3528 688.524C76.6802 689.133 76.6369 689.762 77.3298 690.407C76.2038 692.24 76.6322 693.795 78.2408 695.087C77.5682 695.696 77.4191 696.218 78.5274 697.284C78.3889 697.144 78.3559 697.111 78.2174 696.97C78.0482 697.304 77.8842 697.643 77.7984 698.004C77.9311 699.092 79.1572 698.258 78.2174 696.97C78.89 696.361 78.9337 695.733 78.2408 695.087C79.3668 693.255 78.9384 691.699 77.3298 690.407C78.0024 689.798 78.0457 689.17 77.3528 688.524C78.0258 687.86 78.0416 687.258 77.3765 686.641ZM236.407 357.179C239.743 353.995 243.079 350.81 246.249 347.457C235.532 326.963 221.991 361.093 211.052 367.966C192.088 388.084 175.085 410.467 158.537 432.244C158.518 435.254 154.91 436.312 154.617 438.596C154.179 441.965 150.053 442.836 150.505 446.378C105.463 515.305 66.4524 601.721 77.3999 684.758C79.8644 582.433 128.534 484.146 192.964 407.534M586.054 189.72C586.664 190.393 587.293 190.413 587.938 189.72C588.798 190.31 589.021 191.771 591.93 190.116C590.178 189.464 590.255 191.449 591.932 190.734C591.987 190.735 592.173 190.586 590.751 190.661C589.891 190.07 589.423 188.363 587.938 189.72C587.273 189.047 586.672 189.055 586.054 189.72C585.445 189.048 584.816 189.028 584.171 189.721C583.562 189.048 582.933 189.028 582.288 189.721C581.679 189.048 581.05 189.028 580.405 189.721C452.742 174.17 329.385 255.57 240.515 336.381C240.283 337.884 240.445 340.236 242.152 339.104C246.82 336.93 247.47 341.683 251.216 344.41C250.277 343.01 248.956 344.308 247.899 343.967C246.114 348.61 254.779 347.063 250.286 343.468C281.506 315.287 314.654 287.711 349.737 265.685C418.042 220.925 497.597 189.74 580.095 189.407C580.704 190.08 581.643 190.414 582.288 189.721C582.897 190.393 583.526 190.413 584.171 189.721C584.808 190.421 585.409 190.413 586.054 189.72ZM530.316 201.381C529.707 200.709 529.078 200.689 528.432 201.382C526.963 200.063 526.464 201.744 525.148 202.767C458.247 209.353 386.85 251.377 330.887 292.367C304.668 309.458 281.085 331.237 256.687 351.406C254.154 350.805 255.382 355.917 257.426 354.396C262.764 351.837 264.231 361.846 269.233 355.132C277.932 345.375 288.888 338.407 297.641 328.929C320.095 312.232 342.337 294.535 365.819 278.319C369.355 278.926 370.003 273.806 373.539 274.413C420.166 242.536 472.675 219.698 525.624 202.296C527.093 203.615 527.593 201.934 528.432 201.382C529.042 202.054 529.671 202.074 530.316 201.381C531.785 202.7 532.379 201.114 534.613 200.236C534.002 199.898 532.577 200.53 533.773 201.067C534.636 201.211 535.438 200.397 533.124 200.467C531.655 199.148 531.155 200.829 530.316 201.381ZM490.52 136.532C491.989 137.851 492.49 136.17 493.329 135.617C495.162 136.743 496.611 136.192 523.387 128.245C515.469 128.698 505.345 131.124 498.021 134.703C506.023 134.055 516.072 132.113 523.642 129.233C523.783 129.038 523.642 128.728 498.021 134.703C496.188 133.577 494.621 134.009 493.329 135.617C491.833 134.215 491.388 135.952 490.52 136.532C489.051 135.213 488.551 136.894 487.712 137.446C486.243 136.127 485.742 137.809 484.482 138.777C484.623 138.638 484.763 138.499 484.903 138.361C484.57 138.192 484.055 137.782 483.693 137.696C482.605 137.829 483.615 139.301 484.903 138.361C486.372 139.68 486.872 137.999 487.712 137.446C489.153 138.793 489.653 137.112 490.52 136.532ZM23.3684 603.591C24.9649 602.291 25.4441 600.757 24.3406 598.911C24.9311 598.051 26.6459 597.599 25.2894 596.114C25.8799 595.253 27.5945 594.802 26.2379 593.317C27.8402 591.069 29.4227 588.801 28.1868 585.811C28.7773 584.951 30.4919 584.5 29.1353 583.014C29.7259 582.154 31.1307 581.388 29.7742 579.903C30.3647 579.043 32.0796 578.591 30.723 577.106C31.3135 576.245 33.0281 575.794 31.6715 574.309C32.262 573.448 33.9769 572.997 32.6203 571.511C33.2109 570.651 34.9257 570.199 33.5691 568.714C34.1597 567.854 36.1133 567.644 34.4588 564.735C33.8071 566.487 35.7636 566.449 35.0492 564.772C35.0495 564.716 34.4428 564.495 34.5177 565.917C33.9271 566.777 32.2126 567.229 33.5691 568.714C32.9786 569.574 31.2638 570.026 32.6203 571.511C32.0298 572.372 30.3149 572.823 31.6715 574.309C31.081 575.169 29.3664 575.62 30.723 577.106C30.1325 577.966 28.4176 578.418 29.7742 579.903C29.1836 580.763 27.7788 581.529 29.1353 583.014C28.5448 583.875 26.8302 584.326 28.1868 585.811C26.5845 588.059 25.002 590.327 26.2379 593.317C25.6474 594.177 23.9328 594.628 25.2894 596.114C24.6988 596.974 22.984 597.425 24.3406 598.911M478.526 139.701C477.915 139.363 476.49 139.995 477.685 140.531C478.548 140.676 479.66 140.176 477.347 140.246C475.878 138.927 475.068 140.294 474.228 140.846C472.759 139.527 472.259 141.209 471.419 141.761C469.95 140.442 469.45 142.123 468.611 142.675C467.142 141.356 466.642 143.037 465.802 143.59C464.333 142.271 463.833 143.952 462.573 144.92C462.713 144.781 462.853 144.643 462.993 144.504C462.66 144.335 462.455 144.24 462.093 144.154C461.005 144.286 461.706 145.444 462.993 144.504C464.463 145.823 464.963 144.142 465.802 143.59C467.271 144.909 467.771 143.227 468.611 142.675C470.08 143.994 470.58 142.313 471.419 141.761C472.888 143.08 473.389 141.399 474.228 140.846C475.725 142.193 476.263 140.551 478.526 139.701ZM246.404 375.824C249.713 372.555 253.022 369.287 256.33 366.018C261.738 361.341 259.756 360.626 255.519 356.28C237.365 367.011 220.032 390.293 204.656 407.144C192.835 421.537 177.756 435.772 169.071 452.218C146.688 484.689 123.678 521.574 111.94 558.876C127.887 530.546 143.674 499.753 164.234 473.737C182.264 446.673 203.562 420.394 226.921 396.93M278.341 355.435C275.276 359.792 268.065 361.128 272.185 366.477C271.929 367.172 270.816 366.045 270.528 367.493C273.764 376.264 300.511 344.228 306.777 340.364C322.767 327.948 339.66 315.717 355.846 303.051C435.213 249.524 527.584 206.13 625.304 204.888C538.882 176.908 394.598 263.764 326.335 315.464M559.797 671.365C537.732 692.83 514.552 714.961 489.507 731.502C483.981 737.238 476.378 740.364 470.936 746.128C401.625 791.079 308.641 836.301 222.813 830.035C189.55 827.607 157.425 817.508 128.051 796.545C123.813 796.686 122.18 790.49 118.926 789.439C116.448 789.006 116.961 785.823 114.953 785.923C111.636 786.097 113.517 782.561 111.682 781.714C110.209 781.064 109.945 779.002 107.741 779.407C13.4027 655.811 103.216 486.222 187.817 383.479C201.961 367.512 216.017 350.672 231.631 335.857C233.087 334.751 233.595 333.919 232.016 332.376C203.11 301.096 210.714 308.457 182.837 336.937C77.2311 451.898 -45.2494 656.783 53.2579 809.668C166.402 948.094 382.205 856.467 500.559 767.085C558.861 726.444 609.876 672.202 654.584 616.791C660.636 607.045 667.534 598.773 674.361 589.813C745.871 481.277 818.224 322.727 737.28 200.914C713.732 164.065 670.582 142.929 628.163 133.863C599.296 128.141 564.779 128.251 535.57 132.95C529.454 134.947 538.1 139.717 535.092 143.963C534.324 146.439 538.744 144.969 538.671 147.867C540.063 152.586 534.467 148.042 534.943 152.17C533.668 155.646 528.72 147.047 531.046 144.859C531.862 143.61 530.832 142.68 529.523 142.644C525.259 142.646 527.784 133.314 523.542 134.292C497.783 140.015 471.697 145.351 447.139 155.206C371.561 181.611 304.468 227.487 243.768 277.366C241.086 282.952 202.746 309.757 212.618 308.758C215.305 306.824 216.635 309.46 218.076 310.806C220.529 310.877 215.927 317.212 219.665 316.677C223.215 314.943 224.767 317.467 227.038 319.934C227.287 320.242 228.265 321.457 226.901 321.309C223.528 321.372 226.543 325.77 228.032 323.912C230.222 321.25 234.768 326.413 233.049 329.496C233.304 337.831 249.91 316.28 254.152 315.469C272.722 295.851 296.398 281.794 316.932 264.612C423.514 190.626 620.111 118.311 702.406 260.785C713.553 284.968 719.514 309.93 721.301 335.12C728.101 430.949 674.674 530.258 618.912 604.908C605.99 621.663 591.104 638.168 576.817 654.552M334.097 429.318C335.366 426.79 328.21 425.995 330.388 429.882C339.935 422.833 260.993 506.965 248.497 526.899C193.195 605.629 146.269 696.82 141.989 795.176C157.478 814.612 198.552 820.411 223.206 822.206C392.725 824.942 538.429 703.575 632.834 574.415C632.521 570.957 637.625 570.571 637.173 567.029C682.958 499.528 717.32 418.782 714.343 335.794C711.726 312.506 707.789 264.327 685.301 254.742C653.844 257.783 622.261 261.873 591.88 271.386C516.324 294.169 447.12 335.158 385.871 383.752C368.593 397.22 352.005 412.171 335.778 427.038C332.42 429.135 339.153 430.735 336.242 432.779C333.535 437.891 331.687 430.58 328.796 433.935C305.891 455.952 258.935 510.658 334.097 429.318ZM523.733 52.8822C521.54 51.4474 519.826 52.7416 520.591 55.3661C521.982 55.6533 525.559 55.0673 523.733 52.8822ZM266.606 361.447C267.713 358.193 261.276 358.239 262.953 361.956C264.125 361.74 265.624 362.639 266.606 361.447ZM281.485 376.509C282.592 373.255 276.155 373.301 277.832 377.018C279.032 376.83 280.53 377.73 281.485 376.509ZM292.846 389.467C292.245 392.055 293.929 393.256 296.14 391.793C297.966 389.491 294.408 389.309 292.846 389.467ZM307.951 404.926C307.945 405.818 307.906 406.619 307.901 407.455C312.799 408.544 312.754 403.394 307.951 404.926ZM529.107 122.594C530.368 121.459 528.866 120.22 527.695 120.269C527.744 121.384 527.148 123.976 529.107 122.594ZM62.0203 503.408C62.022 503.129 62.0454 502.984 62.0468 502.762C61.4884 502.925 60.8753 502.922 61.0935 503.703C61.4005 503.622 61.7132 503.489 62.0203 503.408ZM401.019 169.145C400.74 169.144 400.596 169.165 400.373 169.164C400.536 169.722 400.521 170.324 401.303 170.105C401.193 169.77 401.101 169.453 401.019 169.145ZM404.135 167.308C403.907 168.087 404.481 168.05 405.065 168.249C405.292 167.47 404.691 167.478 404.135 167.308ZM47.5642 533.808C47.2582 533.723 46.9416 533.627 46.6078 533.513C46.3801 534.292 46.9537 534.256 47.5378 534.455C47.5391 534.232 47.5629 534.031 47.5642 533.808ZM428.621 157.379C428.315 157.294 427.998 157.198 427.664 157.084C427.436 157.863 428.01 157.827 428.594 158.026C428.595 157.803 428.619 157.602 428.621 157.379ZM45.8287 536.763C45.827 537.042 45.8035 537.186 45.8022 537.409C46.3606 537.245 46.974 537.249 46.7558 536.467C46.4207 536.577 46.1357 536.681 45.8287 536.763ZM44.0404 541.01C44.3191 541.011 44.4639 540.99 44.6869 540.991C44.5231 540.433 44.5387 539.831 43.7569 540.05C43.8664 540.385 43.9587 540.703 44.0404 541.01ZM435.219 154.581C434.913 154.496 434.597 154.399 434.263 154.286C434.035 155.065 434.609 155.029 435.193 155.227C435.194 155.004 435.218 154.86 435.219 154.581ZM42.9502 543.327C42.9485 543.605 42.9251 543.75 42.9237 543.973C43.4821 543.809 44.0952 543.813 43.877 543.031C43.57 543.113 43.2853 543.217 42.9502 543.327ZM438.028 153.666C437.722 153.581 437.405 153.485 437.071 153.371C436.844 154.15 437.417 154.114 438.001 154.313C438.003 154.09 438.027 153.889 438.028 153.666ZM41.8053 546.318C42.1113 546.403 42.4279 546.499 42.7617 546.613C42.9894 545.834 42.4158 545.87 41.8317 545.672C41.8304 545.894 41.7789 546.067 41.8053 546.318ZM440.978 153.232C440.98 152.953 441.004 152.809 441.005 152.586C440.446 152.749 439.833 152.746 440.051 153.528C440.358 153.446 440.671 153.314 440.978 153.232ZM443.643 151.219C443.949 151.305 444.266 151.401 444.6 151.514C444.828 150.735 444.254 150.772 443.67 150.573C443.669 150.796 443.673 150.969 443.643 151.219ZM38.9261 552.882C39.2322 552.967 39.5488 553.064 39.8826 553.177C40.1103 552.398 39.5367 552.434 38.9526 552.236C38.9793 552.431 38.9555 552.631 38.9261 552.882ZM447.549 150.462C447.55 150.183 447.574 150.038 447.575 149.815C447.017 149.979 446.404 149.975 446.622 150.757C446.957 150.647 447.242 150.543 447.549 150.462ZM38.9608 555.328C38.6548 555.242 38.3381 555.146 38.0044 555.033C37.7767 555.811 38.3503 555.775 38.9343 555.974C38.9357 555.751 38.9314 555.578 38.9608 555.328ZM450.385 149.519C450.387 149.24 450.411 149.096 450.412 148.873C449.854 149.037 449.24 149.033 449.459 149.815C449.766 149.733 450.078 149.601 450.385 149.519ZM37.9838 558.153C37.6777 558.067 37.3611 557.971 37.0274 557.858C36.7997 558.637 37.3733 558.6 37.9573 558.799C37.9864 558.604 38.0101 558.404 37.9838 558.153ZM481.616 139.128C481.31 139.042 480.994 138.946 480.66 138.833C480.432 139.612 481.006 139.575 481.59 139.774C481.591 139.551 481.587 139.379 481.616 139.128ZM107.463 567.019C107.433 567.27 107.747 567.756 107.746 567.979C108.304 567.815 108.918 567.819 108.7 567.037C108.393 567.119 107.77 566.937 107.463 567.019ZM537.056 199.063C536.777 199.061 536.633 199.083 536.41 199.081C536.574 199.64 536.558 200.241 537.34 200.023C537.23 199.688 537.138 199.37 537.056 199.063Z" fill="black"/>
</svg>
