<svg width="908" height="300" viewBox="0 0 908 300" fill="none" xmlns="http://www.w3.org/2000/svg">
<path d="M130.316 -501.617C106.149 -500.554 78.3462 -506.451 55.6996 -516.971C60.4864 -523.018 51.4088 -524.93 53.3744 -517.472C47.3419 -517.51 48.1543 -527.855 44.3588 -523.111C43.1969 -519.615 40.4405 -521.797 40.3058 -522.184C35.7544 -529.139 25.6541 -526.991 20.5516 -534.061C23.1754 -535.778 21.3575 -541.846 18.401 -538.365C17.685 -533.733 15.8837 -537.074 13.828 -537.215C11.1378 -537.418 14.0481 -544.081 9.02003 -540.494C6.83057 -542.749 -0.393874 -543.612 1.1845 -547.381C5.40863 -545.744 4.40764 -554.369 9.02309 -551.679C10.3004 -550.909 11.0158 -549.235 10.5711 -547.279C10.1264 -545.322 12.0007 -546.31 12.7843 -545.931C14.8323 -544.892 13.549 -548.394 14.9512 -547.706C18.8191 -543.159 24.8001 -541.244 30.1673 -537.677C29.5693 -538.773 28.8989 -537.382 28.5513 -537.095C23.4216 -531.3 34.7232 -531.261 30.1673 -537.677C33.2293 -537.361 36.4851 -536.637 36.474 -532.109C36.4685 -529.845 38.6725 -531.346 39.4804 -530.566C40.2408 -532.313 40.5398 -532.687 42.9036 -531.439C53.0142 -525.623 64.0289 -523.67 74.6151 -518.582C74.0171 -519.678 73.3464 -518.287 72.9988 -518C67.8691 -512.205 79.171 -512.165 74.6151 -518.582C77.1139 -520.217 78.8831 -517.925 80.9599 -517.024C83.0095 -516.164 81.317 -514.699 81.1428 -513.693C80.5027 -511.49 84.7598 -510.707 84.8903 -513.052C83.3167 -517.911 93.1226 -515.882 90.6629 -512.369C90.1251 -510.827 90.4923 -510.175 92.3254 -509.828C95.9113 -509.439 92.8575 -515.768 97.7274 -513.78C103.26 -513.415 97.5565 -509.206 100.886 -507.935C102.444 -507.646 103.31 -507.5 103.244 -509.419C102.813 -513.895 112.024 -511.774 109.371 -508.194C108.99 -503.959 114.34 -505.795 112.195 -509.982C110.937 -513.085 119.618 -510.499 121.415 -509.117C120.817 -510.212 120.146 -508.821 119.799 -508.534C114.669 -502.739 125.971 -502.7 121.415 -509.117C126.245 -513.824 146.017 -504.337 146.85 -512.972C148.61 -536.37 149.737 -561.198 153.801 -582.713C156.826 -602.359 166.973 -622.203 166.99 -641.903C165.335 -645.341 168.319 -648.187 169.424 -651.408C189.043 -675.964 199.035 -709.923 222.085 -733.691C226.187 -741.967 240.233 -747.351 239.418 -757.049C238.636 -762.426 240.812 -766.646 245.391 -769.285C610.287 -979.621 1131.29 -298.638 1056.28 61.1655C1050.6 88.416 1027.57 215.231 915.984 277.869C901.237 276.694 886.735 287.79 868.714 290.065C844.533 297.561 818.046 293.183 794.358 299.524C530.338 270.65 324.601 36.5513 219.784 -192.982C175.325 -288.919 147.742 -395.068 147.119 -501.371C147.494 -500.819 147.518 -500.306 147.727 -500.442C149.443 -500.911 151.532 -499.44 149.777 -502.396C148.903 -503.549 148.03 -502.978 147.119 -501.371C145.031 -499.29 139.687 -500.136 140.665 -503.096C136.827 -509.506 136.752 -493.873 129.063 -503.533C127.932 -505.351 127.923 -504.512 127.776 -503.465C127.469 -501.479 129.457 -502.839 129.989 -502.117C133.396 -500.183 129.898 -514.073 130.316 -501.617ZM342.489 -658.541C343.474 -659.126 343.656 -659.9 342.96 -660.873C343.945 -661.458 344.127 -662.231 343.432 -663.203C344.417 -663.789 344.599 -664.562 343.904 -665.534C344.889 -666.119 345.212 -666.985 344.463 -669.766C343.891 -669.095 343.85 -666.867 344.814 -668.212C345.209 -669.244 344.869 -670.746 344.375 -667.865C343.39 -667.28 343.208 -666.506 343.904 -665.534C342.919 -664.949 342.736 -664.176 343.432 -663.203C342.447 -662.618 342.264 -661.845 342.96 -660.873M512.495 -88.4844C524.791 -70.2396 540.669 -56.1825 553.327 -38.2935C637.29 50.2927 739.479 138.669 864.864 157.025C871.014 159.425 874.067 154.929 877.443 150.816C878.847 149.6 881.487 149.478 881.12 147.28C870.384 145.145 858.731 139.684 847.566 137.711C551.439 22.9587 316.804 -341.29 342.516 -658.499C307.214 -522.561 349.747 -376.886 409.556 -254.947C418.959 -227.671 438.498 -204.113 450.807 -177.668C450.887 -175.817 452.148 -172.597 455.587 -174.432C456.156 -174.744 455.996 -173.807 456.214 -173.474C457.636 -170.301 458.823 -173.516 460.893 -173.443C464.684 -169.559 453.597 -169.204 459.034 -164.078C471.087 -143.295 487.334 -125.791 499.568 -105.186M291.965 -597.404C292.95 -597.989 293.132 -598.762 292.437 -599.735C293.422 -600.32 293.604 -601.094 292.908 -602.066C293.893 -602.651 294.217 -603.517 293.467 -606.298C292.895 -605.626 292.854 -603.399 293.818 -604.744C294.214 -605.776 293.874 -607.278 293.38 -604.397C292.395 -603.812 292.212 -603.038 292.908 -602.066C291.923 -601.481 291.741 -600.707 292.437 -599.735C291.479 -599.108 291.296 -598.335 291.965 -597.404ZM413.517 -142.083C415.114 -141.642 414.487 -143.016 414.588 -143.499C415.332 -148.269 415.208 -148.485 418.136 -150.282C421.183 -161.079 403.619 -173.259 401.101 -185.471C332.459 -306.091 287.38 -446.948 291.005 -586.664C273.94 -487.94 300.983 -383.163 337.761 -291.419C336.356 -286.93 342.46 -284.679 341.097 -280.218M797.419 181.115C798.31 181.84 798.772 182.311 799.744 181.616C800.329 182.601 801.097 182.813 802.069 182.117C802.654 183.102 803.421 183.313 804.394 182.618C804.979 183.603 806.054 183.613 807.651 182.509C807.442 182.645 806.927 182.982 806.719 183.119C807.089 183.412 807.467 183.699 807.893 183.896C809.273 184.005 808.548 182.278 806.719 183.119C806.133 182.133 805.366 181.922 804.394 182.618C803.809 181.632 803.041 181.421 802.069 182.117C801.484 181.132 800.716 180.92 799.744 181.616C799.132 180.589 798.391 180.419 797.419 181.115C796.707 180.391 796.629 179.015 795.263 178.837L797.419 181.115ZM427.465 -139.078C423.023 -145.866 423.25 -145.895 416.141 -141.125C422.13 -115.065 450.586 -88.1231 466.778 -63.7433C548.476 39.4705 653.295 143.198 784.923 177.276C702.38 142.127 624.371 91.5206 561.525 26.114C532.853 0.205488 504.321 -29.0064 481.881 -62.0263M739.4 180.953C739.985 181.938 740.753 182.15 741.725 181.454C742.311 182.439 742.919 182.755 744.516 181.65C744.308 181.787 744.259 181.819 744.05 181.955C744.421 182.248 744.799 182.536 745.225 182.733C746.605 182.841 745.88 181.115 744.05 181.955C743.465 180.97 742.698 180.758 741.725 181.454C741.113 180.427 740.373 180.257 739.4 180.953ZM450.195 -34.1539C522.312 52.9643 620.108 159.324 737.075 180.452C640.421 139.191 552.384 72.544 485.045 -8.36251C452.718 -44.3108 419.843 -84.3626 396.318 -127.676C393.119 -124.929 384.281 -123.726 389.067 -118.411C397.633 -104.685 406.573 -91.6202 416.711 -79.2196M736.088 191.15C736.674 192.135 737.441 192.347 738.413 191.652C738.999 192.637 739.766 192.848 740.738 192.152C742.724 194.005 744.757 193.865 746.759 192.198C747.344 193.183 747.953 193.498 749.55 192.394C749.342 192.53 749.292 192.563 749.084 192.699C749.454 192.992 749.832 193.28 750.258 193.477C751.638 193.585 750.913 191.859 749.084 192.699C748.499 191.714 747.731 191.502 746.759 192.198C744.773 190.345 742.74 190.485 740.738 192.152C740.153 191.167 739.386 190.956 738.413 191.652C737.759 190.652 737.019 190.482 736.088 191.15ZM368.185 -88.2702C365.08 -93.1975 361.975 -98.1247 358.619 -102.889C330.567 -94.7627 369.416 -69.4464 375.18 -54.1841C395.326 -25.6704 418.766 0.985181 441.571 26.9263C445.291 27.7036 445.697 32.4347 448.45 33.3694C452.51 34.757 452.554 40.0821 457.051 40.4104C531.07 113.436 628.246 183.383 733.763 190.649C607.736 161.948 498.288 77.0711 419.619 -21.8787M248.575 -563.003C249.56 -563.588 249.743 -564.362 249.047 -565.334C249.993 -566.251 251.857 -566.161 250.538 -570.176C249.292 -568.171 251.768 -567.769 251.304 -570.023C251.318 -570.092 251.181 -570.358 250.917 -568.58C249.97 -567.663 247.74 -567.512 249.047 -565.334C248.047 -564.68 247.907 -563.934 248.575 -563.003C247.59 -562.418 247.408 -561.644 248.104 -560.672C247.119 -560.087 246.936 -559.313 247.632 -558.341C246.647 -557.756 246.465 -556.982 247.16 -556.01C195.91 -401.903 265.734 -228.82 343.473 -98.5684C345.276 -97.9041 348.227 -97.5157 347.254 -99.9123C345.734 -106.234 351.78 -105.848 356.093 -109.801C354.126 -108.989 355.4 -107.028 354.714 -105.806C360.013 -102.433 360.271 -113.545 354.695 -108.886C327.642 -154.59 301.821 -202.529 283.355 -251.474C245.079 -347.234 226.424 -453.515 246.694 -555.705C247.679 -556.29 248.328 -557.369 247.632 -558.341C248.617 -558.926 248.799 -559.7 248.104 -560.672C249.13 -561.284 249.271 -562.031 248.575 -563.003ZM249.035 -491.093C248.05 -490.508 247.868 -489.734 248.564 -488.762C246.563 -487.274 248.518 -486.234 249.454 -484.349C240.836 -399.895 274.95 -300.994 311.653 -221.454C326.234 -184.719 347.278 -150.071 366.123 -114.818C364.745 -111.834 371.379 -112.072 370.01 -114.982C368.18 -122.232 380.937 -121.538 373.881 -129.412C363.985 -142.625 358.107 -157.931 348.571 -171.141C333.535 -203.118 317.207 -235.082 303.023 -268.211C304.661 -272.435 298.486 -274.521 300.124 -278.745C272.358 -344.445 257.256 -415.16 248.992 -485.056C250.992 -486.544 249.037 -487.584 248.564 -488.762C249.549 -489.347 249.731 -490.12 249.035 -491.093C251.036 -492.58 249.222 -493.713 248.695 -496.699C248.123 -496.028 248.548 -494.106 249.512 -495.45C249.908 -496.482 249.101 -497.679 248.607 -494.798C246.607 -493.311 248.562 -492.27 249.035 -491.093ZM158.796 -458.095C160.797 -459.583 158.841 -460.623 158.368 -461.801C160.221 -463.787 159.902 -465.719 156.778 -500.851C155.355 -490.938 155.82 -477.799 158.412 -467.837C159.617 -477.904 159.732 -490.828 158.065 -500.92C157.86 -501.142 157.44 -501.046 158.412 -467.837C156.559 -465.851 156.701 -463.803 158.368 -461.801C156.257 -460.3 158.296 -459.314 158.796 -458.095C156.796 -456.608 158.751 -455.568 159.224 -454.39C157.223 -452.903 159.179 -451.862 160.061 -450.06C159.924 -450.268 159.788 -450.476 159.652 -450.685C159.359 -450.314 158.723 -449.779 158.526 -449.353C158.418 -447.974 160.492 -448.855 159.652 -450.685C161.652 -452.172 159.697 -453.213 159.224 -454.39C161.252 -455.836 159.297 -456.876 158.796 -458.095ZM619.76 237.176C618.551 234.874 616.772 233.896 614.211 234.799C613.294 233.853 613.165 231.617 610.986 232.924C610.07 231.977 609.941 229.742 607.762 231.049C605.382 228.502 602.972 225.975 598.962 226.755C598.045 225.809 597.916 223.573 595.738 224.88C594.821 223.933 594.226 222.003 592.047 223.309C591.13 222.363 591.001 220.127 588.823 221.434C587.906 220.487 587.777 218.252 585.599 219.559C584.682 218.612 584.553 216.376 582.374 217.683C581.458 216.736 581.329 214.501 579.15 215.807C578.233 214.861 578.463 212.39 574.449 213.709C576.453 214.955 576.896 212.524 574.642 212.987C574.573 212.973 574.148 213.669 575.926 213.932C576.843 214.879 576.972 217.114 579.15 215.807C580.067 216.754 580.196 218.99 582.374 217.683C583.291 218.63 583.42 220.865 585.599 219.559C586.516 220.505 586.644 222.74 588.823 221.434C589.74 222.38 589.869 224.616 592.047 223.309C592.964 224.256 593.559 226.187 595.738 224.88C596.655 225.827 596.783 228.062 598.962 226.755C601.342 229.302 603.752 231.829 607.762 231.049C608.679 231.995 608.808 234.23 610.986 232.924C611.903 233.87 612.032 236.106 614.211 234.799M159.711 -442.455C159.14 -441.784 159.565 -439.862 160.529 -441.206C160.924 -442.238 160.584 -443.741 160.09 -440.86C158.089 -439.372 159.579 -438.027 160.052 -436.849C158.051 -435.361 160.006 -434.321 160.48 -433.143C158.479 -431.656 160.434 -430.616 160.907 -429.438C158.907 -427.951 160.862 -426.91 161.335 -425.733C159.334 -424.245 161.29 -423.205 162.171 -421.403C162.035 -421.611 161.899 -421.819 161.763 -422.027C161.47 -421.657 161.3 -421.427 161.103 -421.001C160.995 -419.621 162.603 -420.198 161.763 -422.027C163.763 -423.515 161.808 -424.555 161.335 -425.733C163.336 -427.22 161.38 -428.261 160.907 -429.438C162.908 -430.926 160.953 -431.966 160.48 -433.143C162.48 -434.631 160.525 -435.672 160.052 -436.849C162.094 -438.364 160.196 -439.442 159.711 -442.455ZM393.768 -95.9696C390.552 -100.884 387.336 -105.799 384.12 -110.713C379.687 -118.578 378.304 -116.305 371.863 -112.15C380.594 -86.9917 405.065 -59.7025 422.067 -36.4477C436.917 -18.2087 450.755 4.02342 468.933 18.8949C503.511 54.7382 543.394 92.4637 586.62 116.343C555.554 89.503 521.4 62.2452 494.354 30.2764C465.378 1.17641 438.191 -31.7713 415.007 -66.5646M376.539 -140.608C381.163 -135.723 381.009 -126.462 388.662 -130.221C389.458 -129.731 387.784 -128.635 389.504 -127.916C401.171 -129.722 368.225 -170.857 365.015 -179.582C353.656 -202.484 342.752 -226.459 331.134 -249.667C284.779 -361.317 254.228 -486.521 277.187 -607.78C220.892 -507.831 292.222 -307.479 339.099 -210.03M838.118 -409.764C859.153 -377.073 880.733 -342.835 894.927 -307.691C900.641 -299.414 902.604 -289.22 908.374 -281.039C946.634 -183.986 979.295 -57.5649 950.024 47.0932C938.68 87.6527 918.127 124.882 884.818 155.983C883.93 161.263 875.852 161.731 873.735 165.496C872.578 168.454 868.768 167.021 868.388 169.531C867.772 173.681 863.867 170.466 862.358 172.524C861.184 174.184 858.567 173.994 858.515 176.824C681.894 262.601 494.51 108.927 388.555 -21.5378C372.339 -43.0464 355.02 -64.665 340.597 -87.7045C339.594 -89.7838 338.691 -90.6213 336.386 -89.0534C290.426 -61.1189 301.442 -68.6845 329.703 -27.0419C445.514 132.484 668.393 335.437 882.311 251.843C1082 146.508 1022.7 -143.558 941.738 -312.449C906.053 -394.797 851.707 -471.535 794.333 -540.76C783.788 -550.694 775.28 -561.306 765.901 -572.002C649.494 -687.716 471.398 -817.012 300.339 -747.366C248.829 -727.458 211.853 -679.35 189.998 -629.122C175.679 -594.829 167.163 -552.08 165.656 -514.75C166.595 -506.68 174.666 -516.185 179.166 -511.398C182.038 -509.827 181.328 -515.666 184.896 -514.849C191.085 -515.389 184.059 -509.602 189.287 -509.157C193.269 -506.707 181.386 -502.738 179.262 -506.166C177.92 -507.489 176.511 -506.448 176.138 -504.836C175.071 -499.558 164.155 -505.023 164.301 -499.528C164.927 -466.211 164.992 -432.588 171.034 -399.722C184.769 -299.56 224.729 -205.02 271.247 -117.389C277.488 -112.67 301.053 -58.4964 302.292 -70.9654C300.571 -74.7764 304.167 -75.7619 306.195 -77.2079C306.897 -80.2252 313.584 -72.9419 313.859 -77.7022C312.603 -82.5308 316.117 -83.8193 319.739 -86.0109C320.182 -86.2418 321.931 -87.1488 321.406 -85.4967C320.639 -81.3065 326.838 -83.9357 324.912 -86.2438C322.166 -89.6219 329.695 -93.9541 333.08 -91.0537C343.46 -89.2807 320.95 -115.236 321.01 -120.689C301.384 -148.59 289.921 -181.418 273.802 -211.14C208.95 -361.602 168.73 -623.056 365.698 -689.194C398.424 -696.929 430.813 -698.049 462.439 -693.946C582.75 -678.339 692.269 -587.318 770.684 -499.589C788.181 -479.395 804.878 -456.833 821.575 -435.044M481.96 -191.095C479.149 -193.3 476.371 -184.642 481.728 -186.363C475.397 -199.946 559.736 -81.1507 581.276 -60.6871C664.855 27.4954 765.957 108.435 886.617 138.389C914.557 124.091 932.031 74.7072 940.433 44.6431C986.314 -164.481 872.626 -375.242 736.433 -524.464C732.075 -524.943 732.877 -531.357 728.379 -531.686C656.312 -605.275 564.987 -668.046 461.528 -685.165C432.049 -687.764 371.432 -694.969 353.931 -669.538C349.809 -629.843 346.954 -589.728 351.113 -549.741C360.369 -450.515 393.753 -354.587 438.543 -266.599C450.88 -241.837 465.226 -217.559 479.559 -193.747C481.313 -189.066 484.981 -196.998 486.781 -192.882C492.429 -188.251 482.918 -187.796 486.345 -183.377C507.853 -149.509 563.792 -77.6783 481.96 -191.095ZM63.59 -520.171C61.2644 -517.817 62.4367 -515.372 65.8766 -515.66C66.5809 -517.31 66.7522 -521.884 63.59 -520.171ZM381.038 -124.578C377.288 -126.763 375.731 -118.785 380.752 -119.929C380.778 -121.433 382.268 -123.062 381.038 -124.578ZM403.41 -139.217C399.66 -141.403 398.103 -133.424 403.124 -134.569C403.192 -136.101 404.681 -137.729 403.41 -139.217ZM422.296 -150.03C425.348 -148.637 427.257 -150.421 426 -153.524C423.608 -156.361 422.492 -152.002 422.296 -150.03ZM445.216 -164.85C446.318 -164.619 447.3 -164.369 448.334 -164.153C450.91 -169.943 444.524 -171.178 445.216 -164.85ZM151.219 -509.347C150.13 -511.193 148.22 -509.645 147.987 -508.183C149.379 -507.964 152.438 -506.576 151.219 -509.347ZM505.454 164.223C505.109 164.151 504.936 164.085 504.661 164.028C504.723 164.76 504.565 165.518 505.587 165.444C505.563 165.043 505.478 164.623 505.454 164.223ZM176.725 -339.145C176.653 -338.801 176.643 -338.616 176.586 -338.341C177.318 -338.403 178.058 -338.233 177.984 -339.256C177.542 -339.204 177.125 -339.17 176.725 -339.145ZM175.231 -343.462C176.138 -342.985 176.237 -343.704 176.63 -344.377C175.722 -344.854 175.582 -344.108 175.231 -343.462ZM539.456 189.736C539.274 190.093 539.075 190.461 538.851 190.845C539.758 191.323 539.857 190.603 540.25 189.93C539.974 189.873 539.732 189.793 539.456 189.736ZM169.081 -376.257C168.899 -375.899 168.7 -375.532 168.476 -375.147C169.383 -374.67 169.482 -375.389 169.874 -376.062C169.599 -376.12 169.357 -376.199 169.081 -376.257ZM542.678 192.624C543.023 192.696 543.196 192.762 543.471 192.819C543.409 192.087 543.567 191.329 542.544 191.403C542.596 191.845 542.654 192.224 542.678 192.624ZM547.486 195.902C547.558 195.558 547.567 195.373 547.625 195.097C546.893 195.16 546.153 194.99 546.227 196.012C546.669 195.961 547.085 195.926 547.486 195.902ZM167.272 -385.125C167.089 -384.768 166.891 -384.4 166.667 -384.016C167.574 -383.539 167.673 -384.258 168.065 -384.931C167.79 -384.988 167.617 -385.053 167.272 -385.125ZM550.08 197.832C550.425 197.904 550.598 197.97 550.873 198.027C550.811 197.295 550.969 196.537 549.947 196.611C549.971 197.012 550.029 197.39 550.08 197.832ZM166.844 -388.831C166.662 -388.474 166.463 -388.105 166.239 -387.721C167.146 -387.244 167.245 -387.963 167.638 -388.636C167.362 -388.693 167.12 -388.773 166.844 -388.831ZM553.495 199.999C553.678 199.642 553.876 199.274 554.1 198.89C553.193 198.412 553.094 199.131 552.702 199.805C552.978 199.862 553.178 199.969 553.495 199.999ZM167.046 -392.592C166.701 -392.664 166.528 -392.729 166.253 -392.786C166.316 -392.054 166.157 -391.296 167.18 -391.37C167.155 -391.771 167.07 -392.191 167.046 -392.592ZM165.223 -396.395C165.406 -396.752 165.604 -397.12 165.828 -397.504C164.921 -397.982 164.822 -397.262 164.43 -396.589C164.706 -396.532 164.92 -396.494 165.223 -396.395ZM560.898 205.208C561.08 204.851 561.279 204.483 561.503 204.099C560.596 203.621 560.497 204.34 560.105 205.014C560.353 205.029 560.595 205.109 560.898 205.208ZM165.264 -401.418C164.92 -401.49 164.747 -401.555 164.471 -401.613C164.534 -400.881 164.375 -400.123 165.397 -400.197C165.346 -400.639 165.288 -401.017 165.264 -401.418ZM563.934 205.779C563.751 206.136 563.553 206.504 563.329 206.888C564.236 207.365 564.335 206.646 564.727 205.973C564.451 205.916 564.237 205.878 563.934 205.779ZM164.809 -405.165C164.464 -405.237 164.291 -405.303 164.016 -405.36C164.079 -404.628 163.92 -403.87 164.942 -403.944C164.918 -404.345 164.833 -404.765 164.809 -405.165ZM567.185 207.696C567.003 208.053 566.805 208.421 566.58 208.806C567.487 209.283 567.586 208.564 567.979 207.891C567.745 207.806 567.503 207.726 567.185 207.696ZM159.777 -446.424C159.594 -446.067 159.396 -445.699 159.172 -445.314C160.079 -444.837 160.178 -445.556 160.57 -446.229C160.294 -446.287 160.08 -446.325 159.777 -446.424ZM595.576 123.926C595.879 124.025 596.56 123.758 596.835 123.816C596.773 123.083 596.931 122.325 595.909 122.399C595.933 122.8 595.552 123.525 595.576 123.926ZM247.855 -500.016C247.784 -499.672 247.774 -499.487 247.716 -499.212C248.449 -499.274 249.189 -499.104 249.115 -500.127C248.673 -500.075 248.256 -500.041 247.855 -500.016Z" fill="black"/>
</svg>
