<svg width="577" height="542" viewBox="0 0 577 542" fill="none" xmlns="http://www.w3.org/2000/svg">
<path d="M83.86 418.288C91.9703 438.432 95.2722 463.729 93.1222 486.041C86.5745 483.793 87.6638 492.048 93.3912 488.159C95.1589 493.278 86.1578 495.677 91.3066 497.475C94.6134 497.415 93.5886 500.4 93.3006 500.63C88.7699 506.558 93.6021 514.468 89.1384 520.897C86.902 519.188 82.3072 522.538 86.1365 524.002C90.2719 523.226 87.9808 525.748 88.474 527.531C89.1052 529.869 82.5954 529.393 87.1329 532.579C85.8769 535.106 87.301 541.48 83.6391 541.268C83.7653 537.203 76.7618 540.624 77.6624 535.914C77.9334 534.603 79.1367 533.498 80.9258 533.29C82.7149 533.083 81.319 531.791 81.4065 531.015C81.6752 528.971 79.0929 531.102 79.2574 529.709C81.9533 525.078 81.7902 519.443 83.2082 513.835C82.459 514.668 83.8367 514.821 84.1833 515.03C90.6204 517.644 87.2817 508.064 83.2082 513.835C82.5623 511.149 82.2046 508.176 86.0414 506.834C87.9597 506.164 86.031 504.746 86.4503 503.829C84.7447 503.706 84.3384 503.565 84.6905 501.191C86.5977 490.896 84.9654 480.988 86.1147 470.508C85.3655 471.341 86.7429 471.494 87.0895 471.702C93.5266 474.316 90.1882 464.736 86.1147 470.508C83.9848 468.88 85.3973 466.698 85.5407 464.671C85.657 462.679 87.4025 463.675 88.3064 463.522C90.3628 463.407 89.7556 459.569 87.7307 460.159C84.0864 462.94 82.8792 454.033 86.5873 455.067C88.0528 455.063 88.4952 454.557 88.2421 452.902C87.5022 449.75 83.0545 454.224 83.2849 449.507C81.9432 444.714 87.2081 448.288 87.2907 445.089C87.071 443.684 86.9365 442.907 85.3313 443.536C81.67 445.236 80.7176 436.805 84.5405 437.983C88.2396 437.043 85.0894 433.06 82.1842 436.126C79.9322 438.116 79.5323 429.995 80.1664 428.062C79.4171 428.895 80.7948 429.047 81.1414 429.256C87.5785 431.87 84.2398 422.29 80.1664 428.062C74.7397 425.376 76.873 405.807 69.314 407.678C48.9795 413.168 27.6231 419.621 8.19592 422.599C-9.33967 425.899 -29.168 423.229 -45.851 429.092C-48.2678 431.518 -51.5678 429.841 -54.6241 429.867C-81.2678 420.582 -112.999 422.254 -139.999 409.83C-148.229 408.826 -156.977 398.541 -164.945 402.123C-169.264 404.39 -173.486 403.806 -177.086 400.718C-464.024 154.536 -42.9166 -489.719 284.081 -533.556C308.847 -536.876 423.081 -555.217 509.403 -479.43C512.808 -466.594 526.528 -457.627 533.831 -443.049C547.392 -424.812 551.587 -401.082 564.022 -382.918C618.343 -150.777 481.527 93.2458 318.469 250.465C250.509 316.727 168.869 371.747 79.0558 403.988C79.4115 403.507 79.8378 403.333 79.6603 403.197C78.7518 401.885 79.3734 399.676 77.395 402.044C76.6793 403.128 77.4231 403.697 79.0558 403.988C81.4403 405.136 82.3182 409.912 79.5207 409.968C75.2383 415.13 88.4965 410.529 82.612 419.921C81.41 421.42 82.1227 421.178 83.0537 420.99C84.8261 420.657 83.0816 419.38 83.5344 418.714C84.1555 415.252 73.4394 422.358 83.86 418.288ZM-112.295 285.473C-113.084 284.813 -113.794 284.89 -114.409 285.769C-115.199 285.11 -115.908 285.186 -116.524 286.065C-117.313 285.406 -118.022 285.482 -118.638 286.361C-119.427 285.701 -120.256 285.686 -122.387 287.15C-121.648 287.434 -119.75 286.804 -121.176 286.389C-122.168 286.362 -123.338 287.098 -120.752 286.657C-119.962 287.317 -119.253 287.24 -118.638 286.361C-117.848 287.02 -117.139 286.944 -116.524 286.065C-115.734 286.725 -115.025 286.648 -114.409 285.769M319.613 -28.5278C331.391 -44.381 338.555 -62.0176 349.924 -78.0711C399.875 -175.585 444.21 -288.468 422.344 -400.098C422.541 -406.021 417.824 -407.264 413.335 -408.895C411.886 -409.722 410.996 -411.921 409.244 -410.953C410.64 -401.227 409.493 -389.732 411.153 -379.691C402.346 -94.7462 163.962 212.571 -112.268 285.437C13.3537 274.77 123.997 195.3 209.391 108.285C229.679 92.1869 243.795 68.6162 262.512 50.3058C264.054 49.6854 266.404 47.6579 263.825 45.2933C263.391 44.9051 264.232 44.761 264.449 44.4771C266.711 42.3261 263.635 42.2803 263.079 40.5059C265.236 36.1378 268.844 45.4181 271.563 39.2858C285.562 22.8808 295.534 3.90404 309.329 -12.6011M-45.4616 310.008C-46.251 309.349 -46.9599 309.425 -47.5755 310.304C-48.3649 309.645 -49.0744 309.721 -49.69 310.601C-50.4793 309.941 -51.3085 309.926 -53.4396 311.39C-52.7005 311.673 -50.8027 311.044 -52.2287 310.629C-53.2204 310.602 -54.3907 311.338 -51.8042 310.897C-51.0148 311.556 -50.3056 311.48 -49.69 310.601C-48.9006 311.26 -48.1911 311.183 -47.5755 310.304C-46.759 310.928 -46.0501 310.852 -45.4616 310.008ZM303.763 71.2605C303.66 69.7762 302.684 70.7175 302.245 70.7761C297.985 71.5686 297.839 71.7383 295.443 69.7953C285.394 70.4371 280.321 88.9408 270.734 94.716C189.092 188.815 83.2864 269.004 -36.0825 307.617C52.5918 292.612 133.231 238.458 199.932 179.949C204.151 179.8 204.236 173.96 208.42 173.784M462.86 -350.184C463.209 -351.155 463.47 -351.686 462.591 -352.302C463.25 -353.091 463.201 -353.804 462.322 -354.42C462.981 -355.209 462.931 -355.922 462.052 -356.537C462.712 -357.327 462.4 -358.24 460.988 -359.262C461.166 -359.127 461.605 -358.791 461.783 -358.655C461.92 -359.056 462.051 -359.462 462.091 -359.882C461.771 -361.082 460.525 -359.953 461.783 -358.655C461.123 -357.866 461.173 -357.153 462.052 -356.537C461.393 -355.748 461.443 -355.036 462.322 -354.42C461.662 -353.631 461.712 -352.917 462.591 -352.302C461.904 -351.477 461.981 -350.8 462.86 -350.184C462.46 -349.366 461.318 -348.888 461.576 -347.68L462.86 -350.184ZM302.146 58.5544C297.724 64.3407 297.632 64.1572 303.792 68.7525C324.068 55.9073 338.388 23.778 354.198 2.79625C417.209 -97.164 473.757 -216.852 463.339 -338.459C458.206 -258.09 438.634 -176.948 402.008 -104.227C388.627 -72.2229 372.407 -39.352 351.146 -10.5022M480.032 -301.015C480.692 -301.805 480.642 -302.518 479.763 -303.133C480.423 -303.923 480.508 -304.532 479.097 -305.555C479.274 -305.419 479.316 -305.387 479.494 -305.251C479.632 -305.652 479.762 -306.058 479.802 -306.478C479.482 -307.678 478.237 -306.549 479.494 -305.251C478.834 -304.462 478.884 -303.749 479.763 -303.133C479.077 -302.309 479.153 -301.631 480.032 -301.015ZM384.197 8.00864C436.439 -79.0382 497.31 -193.566 480.302 -298.898C474.204 -204.758 444.044 -110.339 395.636 -29.1913C374.845 8.90256 350.744 48.6841 321.092 81.5237C324.372 83.4121 328.027 90.5357 331.099 84.898C340.164 73.5509 348.558 62.0839 356.033 49.802M489.654 -301.254C490.314 -302.043 490.264 -302.756 489.385 -303.372C490.044 -304.161 489.994 -304.874 489.115 -305.489C490.092 -307.723 489.366 -309.402 487.358 -310.6C488.017 -311.39 488.103 -311.999 486.691 -313.022C486.868 -312.886 486.911 -312.854 487.088 -312.718C487.226 -313.119 487.357 -313.525 487.396 -313.944C487.077 -315.145 485.831 -314.016 487.088 -312.718C486.429 -311.929 486.479 -311.216 487.358 -310.6C486.381 -308.366 487.107 -306.687 489.115 -305.489C488.456 -304.7 488.506 -303.987 489.385 -303.372C488.734 -302.52 488.81 -301.842 489.654 -301.254ZM362.847 93.585C359.602 97.684 356.357 101.783 353.325 106.045C368.573 127.37 378.417 86.9273 389.618 77.4939C407.749 51.9311 423.323 24.1337 438.482 -2.91252C438.03 -6.29444 441.915 -8.049 441.885 -10.6586C441.848 -14.5104 446.344 -16.1358 445.28 -20.0415C485.023 -104.494 515.251 -207.634 489.923 -299.136C503.222 -183.874 464.015 -65.8913 403.712 30.2331M-3.39191 336.48C-4.18125 335.821 -4.8905 335.897 -5.5061 336.776C-6.56471 336.248 -7.04463 334.644 -10.0502 336.958C-7.9812 337.415 -8.37919 335.199 -10.1492 336.264C-10.2118 336.273 -10.3965 336.469 -8.8121 336.161C-7.75349 336.689 -6.96072 338.532 -5.5061 336.776C-4.65414 337.427 -3.98038 337.324 -3.39191 336.48C-2.60257 337.14 -1.89332 337.063 -1.27772 336.184C-0.488378 336.843 0.220876 336.767 0.836476 335.888C1.62581 336.547 2.33507 336.471 2.95067 335.592C148.712 333.006 274.419 222.254 361.501 117.579C361.525 115.855 360.974 113.241 359.235 114.78C354.336 117.952 352.859 112.718 348.226 110.246C349.5 111.669 350.78 110.005 352.02 110.222C353.294 104.729 343.809 107.826 349.418 111.157C318.794 147.696 285.91 183.858 249.982 214.094C180.327 275.069 95.912 322.57 3.34794 335.895C2.5586 335.236 1.45208 335.009 0.836476 335.888C0.0471371 335.228 -0.662117 335.305 -1.27772 336.184C-2.10255 335.497 -2.77631 335.601 -3.39191 336.48ZM57.3521 314.637C58.1415 315.297 58.8507 315.22 59.4663 314.341C61.3227 315.591 61.6198 313.626 62.9367 312.27C137.009 294.372 210.564 235.984 266.955 181.181C293.706 157.876 316.762 129.723 340.986 103.251C343.924 103.528 341.743 97.9818 339.687 100.01C334.096 103.721 330.877 92.7142 326.316 101.037C318.082 113.357 306.876 122.9 298.538 134.915C275.951 157.184 253.76 180.544 229.944 202.436C225.879 202.31 225.955 208.159 221.891 208.033C174.55 251.141 119.186 285.024 62.4759 312.873C60.6196 311.623 60.3221 313.589 59.4663 314.341C58.677 313.682 57.9677 313.758 57.3521 314.637C55.4958 313.387 55.0784 315.261 52.7072 316.598C53.4463 316.882 54.9467 315.948 53.5207 315.533C52.5291 315.507 51.756 316.546 54.3425 316.105C56.1989 317.355 56.4964 315.389 57.3521 314.637ZM112.21 381.192C110.354 379.942 110.056 381.908 109.201 382.66C106.967 381.683 105.426 382.531 76.6137 395.656C85.4316 393.904 96.4169 389.59 104.077 384.423C95.1947 386.407 84.2188 390.165 76.172 394.587C76.0448 394.827 76.2515 395.154 104.077 384.423C106.311 385.4 108.003 384.668 109.201 382.66C111.101 383.999 111.327 381.979 112.21 381.192C114.067 382.442 114.364 380.476 115.22 379.725C117.076 380.975 117.374 379.008 118.636 377.724C118.501 377.902 118.365 378.079 118.229 378.257C118.63 378.395 119.273 378.773 119.692 378.813C120.893 378.493 119.527 377 118.229 378.257C116.373 377.007 116.075 378.973 115.22 379.725C113.39 378.439 113.093 380.405 112.21 381.192ZM563.326 -216.498C561.737 -214.787 561.44 -212.99 562.969 -211.091C562.441 -210.032 560.587 -209.256 562.343 -207.801C561.815 -206.743 559.961 -205.967 561.717 -204.512C560.271 -201.737 558.851 -198.943 560.708 -195.78C560.18 -194.722 558.326 -193.946 560.082 -192.491C559.554 -191.433 558.097 -190.353 559.853 -188.898C559.326 -187.84 557.471 -187.064 559.227 -185.609C558.7 -184.55 556.846 -183.775 558.602 -182.32C558.074 -181.261 556.22 -180.485 557.976 -179.031C557.448 -177.972 555.594 -177.196 557.35 -175.741C556.822 -174.683 554.662 -174.14 556.976 -171.135C557.432 -173.204 555.242 -172.853 556.307 -171.083C556.316 -171.021 557.031 -170.868 556.724 -172.452C557.252 -173.511 559.106 -174.287 557.35 -175.741C557.878 -176.8 559.732 -177.576 557.976 -179.031C558.504 -180.089 560.358 -180.865 558.602 -182.32C559.13 -183.379 560.984 -184.154 559.227 -185.609C559.755 -186.668 561.61 -187.444 559.853 -188.898C560.381 -189.957 561.838 -191.037 560.082 -192.491C560.61 -193.55 562.464 -194.326 560.708 -195.78C562.154 -198.555 563.574 -201.35 561.717 -204.512C562.245 -205.571 564.099 -206.347 562.343 -207.801C562.871 -208.86 564.725 -209.636 562.969 -211.091M125.178 375.751C125.918 376.035 127.418 375.102 125.992 374.687C125 374.66 123.83 375.396 126.417 374.955C128.273 376.205 128.968 374.542 129.823 373.791C131.68 375.041 131.977 373.075 132.833 372.323C134.689 373.573 134.987 371.607 135.842 370.855C137.699 372.105 137.996 370.14 138.852 369.388C140.708 370.638 141.006 368.672 142.268 367.388C142.133 367.565 141.997 367.742 141.862 367.92C142.262 368.058 142.508 368.133 142.927 368.172C144.128 367.852 143.16 366.663 141.862 367.92C140.005 366.67 139.708 368.636 138.852 369.388C136.996 368.138 136.698 370.104 135.842 370.855C133.986 369.605 133.689 371.571 132.833 372.323C130.977 371.073 130.679 373.039 129.823 373.791C127.932 372.513 127.585 374.442 125.178 375.751ZM348.696 74.2233C345.495 78.4121 342.294 82.6012 339.092 86.79C333.756 92.8897 336.093 93.3819 341.532 97.5953C360.228 82.6984 376.031 53.8388 390.647 32.5067C401.658 14.493 416.352 -3.85525 423.52 -23.682C443.55 -63.6504 463.591 -108.671 470.912 -152.392C457.456 -118.083 444.568 -81.0353 425.572 -48.5996C409.579 -15.3861 389.795 17.4603 367.255 47.469M316.044 102.127C318.8 96.7544 326.686 94.1221 321.221 88.7646C321.399 87.9441 322.826 89.0341 322.921 87.3639C317.912 78.0251 292.914 118.19 286.486 123.511C270.484 139.96 253.44 156.344 237.257 173.104C156.56 245.659 59.6739 308.877 -49.837 325.615C51.5776 343.458 199.92 223.295 268.439 154.536M-49.5363 -208.361C-28.1352 -235.922 -5.58627 -264.407 19.9333 -286.909C25.236 -294.216 33.2813 -298.919 38.4858 -306.245C109.239 -367.591 206.527 -432.959 303.866 -439.4C341.59 -441.897 379.241 -435.603 415.509 -416.681C420.244 -417.505 423.051 -410.805 426.869 -410.136C429.719 -410.038 429.643 -406.386 431.881 -406.812C435.578 -407.529 434.021 -403.264 436.213 -402.6C437.969 -402.102 438.589 -399.829 441 -400.63C566.315 -276.687 492.113 -72.1962 413.267 56.4305C399.896 76.5764 386.76 97.6892 371.556 116.773C370.095 118.243 369.656 119.257 371.671 120.741C409.033 151.318 399.341 144.249 426.165 107.899C526.674 -37.7428 632.008 -286.987 497.415 -443.157C348.66 -580.796 120.775 -444.048 1.93918 -325.121C-57.1326 -270.342 -105.888 -201.437 -147.38 -132.21C-152.643 -120.319 -159.089 -109.95 -165.347 -98.8186C-228.586 34.2566 -284.919 223.612 -174.922 347.657C-142.7 385.329 -90.9395 402.281 -41.8945 405.799C-8.5891 407.691 30.1444 402.147 62.1979 392.286C68.7503 389.084 58.2954 385.087 61.0057 379.848C61.4788 376.948 56.7471 379.292 56.3746 376.027C54.0704 370.948 61.0669 375.17 59.8839 370.611C60.77 366.509 67.6752 375.385 65.4067 378.206C64.6869 379.737 65.9888 380.619 67.4647 380.454C72.2516 379.783 70.881 390.655 75.4901 388.892C103.51 378.422 131.957 368.336 157.98 353.416C238.682 311.906 306.801 249.87 367.114 184.343C369.248 177.651 408.082 141.539 397.156 144.21C394.443 146.803 392.536 144.053 390.707 142.768C387.943 143.073 392.114 135.239 388.001 136.426C384.288 138.93 382.149 136.34 379.213 133.927C378.885 133.621 377.596 132.41 379.151 132.362C382.927 131.762 378.852 127.297 377.473 129.617C375.432 132.95 369.518 127.867 370.963 124.136C369.368 114.819 354.109 141.621 349.475 143.196C331.707 168.137 307.334 187.635 286.98 210.149C178.942 309.943 -30.4138 421.995 -145.171 274.968C-161.482 249.568 -172.094 222.481 -178.055 194.482C-200.735 87.9669 -156.347 -31.91 -105.467 -124.471C-93.5904 -145.31 -79.4699 -166.176 -66.0041 -186.813M241.849 27.9363C240.821 30.9742 248.98 30.7432 245.925 26.7211C236.314 36.1331 311.728 -70.711 322.627 -95.0525C372.35 -192.122 410.714 -301.864 400.076 -412.955C379.636 -432.344 332.613 -432.405 304.654 -430.549C113.915 -407.005 -30.6041 -247.875 -116.309 -88.0523C-115.414 -84.2196 -121.084 -82.9847 -120.02 -79.0789C-160.823 3.88933 -186.721 99.9343 -170.349 192.633C-163.755 218.366 -151.771 271.836 -125.019 279.066C-90.1824 270.714 -55.368 261.162 -22.7546 245.712C58.4914 208.273 129.747 151.39 190.879 87.2199C208.162 69.3881 224.437 49.9989 240.32 30.7604C243.76 27.8784 235.951 27.14 238.898 24.3875C241.134 18.224 244.357 26.1412 247.076 21.9212C269.333 -6.39224 313.458 -75.181 241.849 27.9363ZM88.0583 480.316C90.7455 481.582 92.4658 479.86 91.1956 477.034C89.5881 476.93 85.6651 478.15 88.0583 480.316ZM328.274 93.5353C327.542 97.3622 334.761 96.3003 332.295 92.3908C331.013 92.817 329.19 92.0423 328.274 93.5353ZM309.205 78.9621C308.473 82.789 315.693 81.7271 313.226 77.8176C311.909 78.2167 310.085 77.442 309.205 78.9621ZM294.416 66.1988C294.685 63.1987 292.605 62.1147 290.353 64.1049C288.665 66.976 292.688 66.621 294.416 66.1988ZM275.032 51.2153C274.898 50.2133 274.816 49.307 274.691 48.3676C269.021 47.9141 269.88 53.6886 275.032 51.2153ZM71.0794 402.897C69.8419 404.37 71.7224 405.525 73.0292 405.287C72.7992 404.043 73.0622 401.039 71.0794 402.897ZM535.663 -97.9581C535.705 -97.645 535.701 -97.4791 535.734 -97.2286C536.336 -97.5001 537.024 -97.5922 536.657 -98.4355C536.325 -98.2955 535.995 -98.0981 535.663 -97.9581ZM207.568 330.526C207.881 330.484 208.04 330.437 208.291 330.404C208.019 329.803 207.942 329.125 207.099 329.493C207.275 329.852 207.428 330.194 207.568 330.526ZM204.359 333.078C204.492 332.168 203.854 332.299 203.167 332.168C203.034 333.078 203.708 332.974 204.359 333.078ZM547.119 -134.357C547.476 -134.309 547.846 -134.251 548.239 -134.176C548.372 -135.086 547.734 -134.955 547.047 -135.087C547.08 -134.836 547.085 -134.608 547.119 -134.357ZM178.429 348.069C178.786 348.117 179.156 348.175 179.549 348.25C179.682 347.34 179.044 347.471 178.357 347.339C178.39 347.59 178.395 347.818 178.429 348.069ZM548.603 -137.947C548.561 -138.26 548.565 -138.426 548.531 -138.676C547.93 -138.405 547.241 -138.312 547.609 -137.469C547.968 -137.644 548.271 -137.807 548.603 -137.947ZM549.944 -142.995C549.631 -142.953 549.472 -142.906 549.221 -142.872C549.493 -142.271 549.57 -141.594 550.413 -141.962C550.238 -142.321 550.084 -142.663 549.944 -142.995ZM171.46 352.247C171.817 352.295 172.188 352.353 172.58 352.428C172.714 351.518 172.075 351.648 171.388 351.517C171.422 351.768 171.418 351.934 171.46 352.247ZM550.804 -145.767C550.762 -146.08 550.766 -146.246 550.732 -146.497C550.131 -146.225 549.442 -146.133 549.81 -145.29C550.142 -145.43 550.445 -145.592 550.804 -145.767ZM168.45 353.714C168.807 353.762 169.178 353.82 169.571 353.895C169.704 352.985 169.066 353.116 168.379 352.984C168.413 353.235 168.417 353.464 168.45 353.714ZM551.62 -149.305C551.263 -149.353 550.892 -149.411 550.5 -149.486C550.366 -148.576 551.005 -148.707 551.692 -148.575C551.658 -148.826 551.689 -149.027 551.62 -149.305ZM165.206 354.666C165.248 354.979 165.245 355.145 165.278 355.395C165.879 355.124 166.568 355.031 166.201 354.188C165.869 354.328 165.538 354.526 165.206 354.666ZM162.531 357.343C162.174 357.295 161.803 357.237 161.41 357.162C161.277 358.072 161.915 357.942 162.602 358.073C162.569 357.822 162.537 357.629 162.531 357.343ZM553.822 -157.126C553.464 -157.174 553.094 -157.232 552.701 -157.308C552.568 -156.397 553.206 -156.528 553.893 -156.397C553.833 -156.612 553.828 -156.84 553.822 -157.126ZM158.265 358.807C158.307 359.12 158.304 359.286 158.337 359.537C158.938 359.265 159.627 359.174 159.259 358.33C158.9 358.506 158.597 358.667 158.265 358.807ZM553.399 -159.867C553.756 -159.819 554.126 -159.76 554.519 -159.685C554.652 -160.596 554.014 -160.465 553.327 -160.596C553.36 -160.346 553.392 -160.153 553.399 -159.867ZM155.229 360.311C155.27 360.624 155.267 360.79 155.3 361.04C155.901 360.769 156.59 360.677 156.223 359.833C155.891 359.973 155.56 360.171 155.229 360.311ZM554.052 -163.192C554.409 -163.144 554.779 -163.085 555.172 -163.01C555.305 -163.921 554.667 -163.79 553.98 -163.921C553.978 -163.698 553.983 -163.469 554.052 -163.192ZM121.799 376.88C122.156 376.928 122.526 376.986 122.919 377.061C123.052 376.151 122.414 376.281 121.727 376.15C121.761 376.401 121.792 376.594 121.799 376.88ZM474.66 -162.236C474.653 -162.522 474.224 -163.019 474.191 -163.27C473.589 -162.998 472.9 -162.906 473.268 -162.062C473.6 -162.202 474.328 -162.096 474.66 -162.236ZM50.1491 318.298C50.4622 318.257 50.6214 318.209 50.8719 318.176C50.6003 317.575 50.5234 316.897 49.6801 317.265C49.8556 317.624 50.0091 317.966 50.1491 318.298Z" fill="black"/>
</svg>
