<svg width="1123" height="227" viewBox="0 0 1123 227" fill="none" xmlns="http://www.w3.org/2000/svg">
<path d="M973.657 847.909C1000.77 844.743 1032.55 849.116 1058.9 859.112C1054 866.308 1064.38 867.721 1061.56 859.487C1068.35 859.038 1068.28 870.749 1072.16 865.1C1073.19 861.07 1076.47 863.301 1076.65 863.726C1082.34 871.184 1093.53 867.943 1099.85 875.486C1097.04 877.632 1099.58 884.314 1102.62 880.155C1103.05 874.882 1105.35 878.496 1107.68 878.488C1110.72 878.497 1107.99 886.235 1113.36 881.787C1116.01 884.147 1124.21 884.53 1122.74 888.901C1117.85 887.402 1119.68 897.029 1114.26 894.377C1112.76 893.614 1111.82 891.789 1112.16 889.55C1112.51 887.312 1110.48 888.577 1109.56 888.214C1107.17 887.211 1108.9 891.049 1107.27 890.388C1102.54 885.585 1095.66 883.916 1089.32 880.34C1090.09 881.524 1090.73 879.904 1091.1 879.553C1096.4 872.611 1083.67 873.488 1089.32 880.34C1085.85 880.233 1082.13 879.683 1081.77 874.585C1081.59 872.036 1079.23 873.906 1078.26 873.094C1077.55 875.122 1077.24 875.568 1074.48 874.355C1062.63 868.633 1050.07 867.331 1037.74 862.467C1038.5 863.651 1039.14 862.032 1039.51 861.68C1044.81 854.739 1032.09 855.615 1037.74 862.467C1035.06 864.511 1032.88 862.076 1030.47 861.23C1028.09 860.43 1029.88 858.643 1029.99 857.496C1030.53 854.963 1025.68 854.429 1025.72 857.08C1027.89 862.421 1016.68 860.936 1019.17 856.781C1019.65 855.002 1019.18 854.298 1017.09 854.057C1013.02 853.91 1016.97 860.786 1011.33 858.945C1005.07 858.985 1011.15 853.783 1007.3 852.623C1005.52 852.425 1004.53 852.33 1004.77 854.486C1005.62 859.489 995.074 857.852 997.769 853.606C997.854 848.808 991.981 851.31 994.737 855.849C996.405 859.239 986.423 857.035 984.288 855.626C985.05 856.81 985.691 855.19 986.059 854.838C991.361 847.897 978.637 848.774 984.288 855.626C979.234 861.318 956.206 852.25 955.972 862.038C955.897 888.518 956.651 916.557 953.83 941.105C952.025 963.465 942.221 986.629 943.807 1008.8C945.95 1012.54 942.822 1015.99 941.842 1019.7C921.758 1048.94 913.278 1087.98 889.269 1116.61C885.326 1126.26 869.955 1133.47 871.662 1144.32C872.98 1150.3 870.875 1155.23 865.936 1158.57C472.342 1425.06 -169.585 700.987 -114.468 289.877C-110.294 258.741 -94.7106 114.12 25.7919 34.5225C42.4875 34.6439 57.906 20.9728 78.0053 16.9431C104.613 6.53508 134.784 9.30579 160.931 0.238412C460.467 11.2284 711.12 257.97 847.805 507.795C905.666 612.161 945.361 729.396 954.723 849.001C954.257 848.41 954.187 847.835 953.964 848.006C952.071 848.673 949.599 847.188 951.816 850.371C952.893 851.598 953.829 850.884 954.723 849.001C956.905 846.489 962.988 847.006 962.129 850.417C966.971 857.32 965.782 839.717 975.224 849.964C976.645 851.918 976.587 850.973 976.667 849.782C976.851 847.522 974.724 849.215 974.066 848.445C970.073 846.546 975.142 861.895 973.657 847.909ZM747.619 1041.83C746.557 1042.57 746.416 1043.46 747.278 1044.49C746.217 1045.23 746.075 1046.12 746.937 1047.16C745.876 1047.9 745.733 1048.78 746.596 1049.82C745.535 1050.56 745.242 1051.56 746.312 1054.63C746.9 1053.82 746.765 1051.31 745.789 1052.91C745.428 1054.1 745.933 1055.76 746.255 1052.48C747.316 1051.74 747.458 1050.86 746.596 1049.82C747.657 1049.08 747.8 1048.19 746.937 1047.16C747.998 1046.42 748.14 1045.53 747.278 1044.49M509.812 414.02C494.486 394.485 475.468 379.956 459.762 360.851C358.035 267.979 235.809 176.827 93.1788 166.381C86.0605 164.181 82.9909 169.49 79.526 174.394C78.0439 175.878 75.0821 176.23 75.6751 178.674C87.9333 180.203 101.495 185.4 114.224 186.711C456.897 291.751 750.682 682.637 747.584 1041.79C776.246 885.896 716.501 725.388 639.244 593.005C626.438 563.069 602.525 538.144 586.516 509.38C586.274 507.303 584.593 503.782 580.871 506.127C580.257 506.525 580.36 505.457 580.088 505.1C578.228 501.644 577.154 505.36 574.818 505.447C570.235 501.384 582.685 500.081 576.147 494.753C560.887 472.342 541.173 453.963 525.723 431.767M799.508 968.899C798.447 969.638 798.304 970.523 799.167 971.56C798.105 972.299 797.964 973.185 798.826 974.223C797.765 974.962 797.471 975.962 798.541 979.032C799.13 978.229 798.995 975.719 798.02 977.311C797.659 978.505 798.164 980.168 798.485 976.885C799.546 976.146 799.688 975.261 798.826 974.223C799.887 973.484 800.029 972.598 799.167 971.56C800.194 970.777 800.336 969.892 799.508 968.899ZM625.59 466.288C623.756 465.921 624.575 467.417 624.5 467.968C624.051 473.398 624.208 473.631 621.058 475.893C618.509 488.294 639.271 500.573 643.101 514.113C730.192 644.292 792.41 799.17 799.713 956.731C810.879 844.215 771.902 728.481 723.029 628.209C724.245 623.042 717.19 621.006 718.362 615.873M167.133 133.77C166.071 133.026 165.513 132.534 164.475 133.396C163.736 132.335 162.855 132.159 161.817 133.021C161.078 131.96 160.197 131.785 159.16 132.647C158.421 131.586 157.21 131.662 155.502 133.035C155.726 132.865 156.279 132.443 156.502 132.272C156.061 131.973 155.612 131.679 155.116 131.493C153.555 131.483 154.511 133.367 156.502 132.272C157.241 133.334 158.122 133.509 159.16 132.647C159.899 133.708 160.779 133.883 161.817 133.021C162.556 134.082 163.437 134.258 164.475 133.396C165.248 134.502 166.095 134.633 167.133 133.77C167.993 134.527 168.194 136.07 169.745 136.158L167.133 133.77ZM609.645 464.041C615.198 471.32 614.945 471.371 622.558 465.422C613.693 436.577 579.468 408.569 559.256 382.446C458.887 272.924 332.45 164.707 181.512 137.073C277.286 169.912 369.217 220.519 445.287 289.021C479.671 315.848 514.167 346.405 542.117 381.744M232.453 129.225C231.714 128.164 230.832 127.988 229.795 128.85C229.056 127.789 228.345 127.484 226.637 128.857C226.86 128.687 226.914 128.646 227.137 128.476C226.696 128.176 226.247 127.883 225.751 127.696C224.19 127.686 225.146 129.571 227.137 128.476C227.876 129.537 228.757 129.713 229.795 128.85C230.568 129.956 231.415 130.088 232.453 129.225ZM575.512 347.789C487.238 255.604 368.492 143.852 235.11 129.6C347.267 168.169 451.794 236.014 534.182 321.597C573.499 359.427 613.766 401.832 643.776 448.67C647.153 445.316 657.003 443.242 651.182 437.65C640.422 422.897 629.294 408.92 616.874 395.787M235.35 117.477C234.611 116.416 233.73 116.24 232.692 117.102C231.953 116.041 231.072 115.866 230.034 116.728C227.648 114.804 225.371 115.128 223.254 117.167C222.515 116.106 221.804 115.801 220.096 117.174C220.319 117.004 220.373 116.963 220.596 116.793C220.155 116.493 219.706 116.2 219.21 116.013C217.649 116.003 218.605 117.888 220.596 116.793C221.335 117.854 222.216 118.03 223.254 117.167C225.64 119.091 227.917 118.768 230.034 116.728C230.773 117.789 231.654 117.964 232.692 117.102C233.509 118.174 234.357 118.305 235.35 117.477ZM672.232 402.021C676.128 407.315 680.025 412.608 684.19 417.697C715.104 406.264 669.313 380.933 661.581 364.224C636.581 333.77 608.025 305.676 580.242 278.334C575.991 277.762 575.149 272.47 571.974 271.642C567.291 270.411 566.808 264.42 561.719 264.417C472.453 188.249 357.371 117.434 238.008 117.852C382.204 139.89 512.315 226.511 608.928 331.481M845.545 926.641C844.484 927.38 844.341 928.265 845.204 929.303C844.213 930.412 842.109 930.463 843.92 934.875C845.159 932.517 842.34 932.265 843.045 934.765C843.035 934.844 843.212 935.133 843.364 933.109C844.354 932 846.852 931.649 845.204 929.303C846.276 928.486 846.373 927.634 845.545 926.641C846.606 925.902 846.748 925.017 845.886 923.979C846.947 923.24 847.089 922.354 846.227 921.317C847.288 920.578 847.43 919.692 846.568 918.654C891.7 741.014 799.003 551.878 700.887 411.6C698.803 410.999 695.45 410.802 696.741 413.42C698.967 420.413 692.13 420.47 687.597 425.271C689.745 424.197 688.151 422.094 688.824 420.662C682.584 417.298 683.2 429.827 689.096 424.127C723.271 473.369 756.241 525.226 781.015 578.814C831.901 683.484 861.558 801.596 847.067 918.273C846.006 919.012 845.364 920.279 846.227 921.317C845.166 922.056 845.023 922.941 845.886 923.979C844.78 924.752 844.683 925.603 845.545 926.641ZM839.168 845.736C840.229 844.997 840.371 844.111 839.509 843.073C841.64 841.236 839.355 840.225 838.147 838.179C840.968 742.415 794.511 633.87 746.716 547.329C727.311 507.167 700.801 469.882 676.715 431.736C678.024 428.265 670.576 429.073 672.354 432.238C675.004 440.248 660.589 440.507 669.173 448.795C681.388 462.861 689.251 479.612 701.062 493.704C720.592 528.472 741.575 563.121 760.24 599.256C758.741 604.144 765.86 605.989 764.361 610.877C800.967 682.567 823.728 760.935 838.726 838.937C836.595 840.775 838.881 841.786 839.509 843.073C838.448 843.812 838.306 844.698 839.168 845.736C837.037 847.573 839.172 848.7 840.008 852.018C840.597 851.216 839.962 849.087 838.986 850.679C838.625 851.873 839.63 853.155 839.952 849.872C842.082 848.034 839.797 847.022 839.168 845.736ZM938.054 801.241C935.923 803.078 938.209 804.09 938.837 805.377C936.913 807.763 937.431 809.912 943.809 849.203C944.604 837.929 943.01 823.177 939.28 812.175C938.744 823.605 939.667 838.161 942.366 849.385C942.615 849.619 943.08 849.476 939.28 812.175C941.204 809.789 940.877 807.495 938.837 805.377C941.092 803.516 938.716 802.573 938.054 801.241C940.185 799.403 937.899 798.392 937.271 797.105C939.401 795.268 937.116 794.256 935.976 792.299C936.146 792.522 936.317 792.746 936.487 792.969C936.787 792.529 937.459 791.875 937.646 791.379C937.655 789.817 935.392 790.978 936.487 792.969C934.357 794.807 936.642 795.819 937.271 797.105C935.106 798.898 937.391 799.91 938.054 801.241ZM362.54 56.1922C364.089 58.6848 366.17 59.6404 368.98 58.4152C370.089 59.406 370.417 61.912 372.762 60.2637C373.872 61.2545 374.199 63.76 376.544 62.1117C379.431 64.7843 382.35 67.4325 386.8 66.2276C387.909 67.2184 388.236 69.7239 390.582 68.0756C391.691 69.0664 392.518 71.1911 394.864 69.5428C395.973 70.5336 396.3 73.0396 398.646 71.3913C399.755 72.3821 400.082 74.8876 402.428 73.2393C403.537 74.2301 403.864 76.7361 406.21 75.0878C407.319 76.0786 407.647 78.5845 409.992 76.9363C411.102 77.9271 411.044 80.7266 415.456 78.9154C413.097 77.6764 412.797 80.449 415.296 79.7432C415.375 79.7538 415.798 78.9362 413.774 78.7843C412.665 77.7935 412.338 75.288 409.992 76.9363C408.883 75.9455 408.556 73.4395 406.21 75.0878C405.101 74.097 404.774 71.591 402.428 73.2393C401.319 72.2485 400.992 69.7431 398.646 71.3913C397.537 70.4005 397.21 67.8946 394.864 69.5428C393.755 68.552 392.928 66.4274 390.582 68.0756C389.473 67.0848 389.146 64.5794 386.8 66.2276C383.914 63.555 380.995 60.9068 376.544 62.1117C375.435 61.1209 375.108 58.6155 372.762 60.2637C371.653 59.2729 371.326 56.767 368.98 58.4152M935.75 783.711C936.338 782.909 935.703 780.78 934.728 782.372C934.367 783.566 934.872 785.229 935.193 781.946C937.324 780.108 935.538 778.715 934.91 777.428C937.04 775.591 934.755 774.579 934.126 773.292C936.257 771.455 933.971 770.443 933.343 769.156C935.474 767.319 933.188 766.307 932.56 765.02C934.69 763.183 932.405 762.171 931.265 760.214C931.435 760.438 931.606 760.661 931.776 760.884C932.076 760.443 932.248 760.171 932.435 759.675C932.445 758.113 930.681 758.893 931.776 760.884C929.645 762.722 931.931 763.733 932.56 765.02C930.429 766.858 932.715 767.87 933.343 769.156C931.212 770.994 933.498 772.005 934.126 773.292C931.995 775.13 934.281 776.141 934.91 777.428C932.734 779.3 934.958 780.359 935.75 783.711ZM644.063 412.772C648.083 418.042 652.104 423.312 656.124 428.582C661.755 437.074 663.126 434.402 670.037 429.2C658.16 401.593 628.392 372.87 607.36 348.079C589.158 328.759 571.771 304.862 550.098 289.603C508.256 252.075 460.289 212.86 409.688 189.503C446.843 217.184 487.508 245.083 520.556 278.863C555.543 309.258 588.829 344.129 617.76 381.404M667.093 461.614C661.49 456.492 660.909 446.056 652.601 450.91C651.665 450.423 653.459 449.054 651.465 448.385C638.48 451.367 678.915 494.985 683.24 504.544C697.892 529.398 712.118 555.496 727.087 580.673C788.361 702.571 832.951 841.012 816.987 979.373C872.21 862.283 775.596 642.577 714.892 536.706M169.464 802.186C143.123 767.103 116.043 730.322 97.2019 691.92C90.0964 683.069 87.0558 671.754 79.8951 663.016C28.9218 556.889 -18.1426 417.249 6.27845 297.06C15.7427 250.481 35.8438 206.901 70.8036 169.179C71.3721 163.164 80.4273 161.979 82.5032 157.569C83.5648 154.145 87.97 155.447 88.1937 152.592C88.5482 147.87 93.2061 151.17 94.7365 148.731C95.9225 146.767 98.8841 146.767 98.7119 143.578C290.531 32.6357 513.972 190.346 643.866 328.566C663.871 351.455 685.128 374.378 703.239 399.137C704.538 401.396 705.622 402.265 708.089 400.312C757.547 365.124 745.763 374.538 710.559 329.967C567.203 159.838 299.792 -50.4497 65.815 61.0746C-150.378 195.911 -59.9878 517.58 44.8983 701.09C91.7754 790.874 159.2 872.824 229.422 946.07C242.1 956.392 252.542 967.643 263.97 978.919C404.427 1099.68 615.429 1230.71 802.3 1138.38C858.659 1111.77 896.36 1054.61 916.867 996.293C930.191 956.526 936.294 907.712 934.948 865.571C933.234 856.564 924.924 867.921 919.468 862.899C916.107 861.364 917.383 867.879 913.299 867.25C906.377 868.363 913.815 861.275 907.894 861.2C903.211 858.767 916.264 853.332 918.934 857.017C920.552 858.397 922.054 857.11 922.342 855.265C923.112 849.237 935.845 854.5 935.233 848.326C931.814 810.876 929.001 773.034 919.523 736.532C895.902 624.908 843.22 521.748 783.719 426.9C776.31 422.096 745.371 363.038 744.992 377.174C747.239 381.324 743.272 382.726 741.108 384.519C740.563 387.972 732.443 380.319 732.521 385.7C734.328 391.033 730.478 392.769 726.58 395.531C726.099 395.827 724.204 396.991 724.66 395.088C725.183 390.309 718.419 393.774 720.776 396.215C724.142 399.793 716.019 405.283 711.973 402.294C700.145 401.144 727.598 428.526 727.974 434.668C752.339 464.476 767.916 500.493 788.481 532.635C873.738 696.713 940.312 987.732 723.991 1078.23C687.785 1089.6 651.419 1093.5 615.486 1091.46C478.791 1083.69 348.099 990.16 252.687 897.8C231.346 876.495 210.714 852.459 190.145 829.294M552.543 527.032C555.887 529.285 558.309 519.313 552.419 521.687C560.651 536.46 456.04 409.614 430.127 388.335C328.864 295.885 208.469 213.016 70.2112 189.131C39.9275 207.501 24.2822 264.511 17.2742 299.036C-17.3323 538.167 127.808 766.139 293.266 923.009C298.211 923.193 297.831 930.479 302.921 930.482C390.036 1007.44 497.946 1070.66 615.796 1081.5C649.189 1082.02 718.008 1085.19 735.635 1055.14C737.041 1010.13 736.986 964.738 729.047 920.068C710.544 809.132 665.15 703.874 607.566 608.482C591.662 581.616 573.535 555.457 555.462 529.822C553.106 524.696 549.624 533.922 547.262 529.437C540.527 524.683 551.196 523.397 546.978 518.702C520.009 482.332 451.192 406.036 552.543 527.032ZM1050.28 863.358C1052.7 860.518 1051.18 857.861 1047.34 858.466C1046.68 860.381 1046.86 865.543 1050.28 863.358ZM660.722 443.937C665.122 446.091 666.224 436.984 660.666 438.681C660.759 440.376 659.215 442.331 660.722 443.937ZM636.733 462.238C641.132 464.393 642.235 455.285 636.677 456.982C636.724 458.712 635.181 460.667 636.733 462.238ZM616.356 475.948C612.807 474.629 610.803 476.792 612.471 480.182C615.394 483.18 616.296 478.184 616.356 475.948ZM591.765 494.496C590.505 494.327 589.379 494.125 588.198 493.966C585.77 500.693 593.059 501.563 591.765 494.496ZM950.759 858.313C952.134 860.302 954.159 858.404 954.302 856.74C952.717 856.607 949.161 855.293 950.759 858.313ZM497.149 128.996C497.542 129.049 497.742 129.109 498.057 129.151C497.927 128.332 498.044 127.466 496.899 127.633C496.959 128.082 497.089 128.548 497.149 128.996ZM908.182 668.81C908.235 668.417 908.23 668.208 908.273 667.893C907.454 668.023 906.607 667.892 906.774 669.037C907.267 668.943 907.733 668.87 908.182 668.81ZM910.215 673.548C909.155 673.084 909.102 673.902 908.715 674.692C909.775 675.155 909.873 674.303 910.215 673.548ZM456.796 103.049C456.973 102.632 457.166 102.202 457.387 101.751C456.327 101.287 456.274 102.105 455.888 102.894C456.203 102.937 456.481 103.007 456.796 103.049ZM919.809 709.961C919.985 709.543 920.179 709.113 920.4 708.662C919.34 708.199 919.287 709.016 918.9 709.806C919.215 709.848 919.494 709.918 919.809 709.961ZM452.934 100.06C452.541 100.007 452.341 99.9476 452.026 99.9052C452.156 100.724 452.04 101.591 453.185 101.424C453.091 100.931 452.994 100.509 452.934 100.06ZM447.256 96.762C447.203 97.1556 447.207 97.3642 447.165 97.6792C447.984 97.5489 448.831 97.6799 448.664 96.5353C448.171 96.6292 447.705 96.7021 447.256 96.762ZM922.568 719.796C922.745 719.379 922.938 718.949 923.159 718.497C922.099 718.034 922.046 718.852 921.66 719.641C921.975 719.684 922.175 719.743 922.568 719.796ZM444.178 94.8007C443.785 94.7478 443.585 94.6884 443.27 94.6461C443.4 95.4651 443.284 96.3311 444.428 96.1645C444.368 95.7156 444.272 95.2942 444.178 94.8007ZM923.352 723.932C923.528 723.515 923.721 723.084 923.942 722.633C922.882 722.17 922.83 722.987 922.443 723.777C922.758 723.819 923.037 723.89 923.352 723.932ZM440.158 92.6398C439.981 93.057 439.788 93.4871 439.567 93.9383C440.627 94.4015 440.68 93.5841 441.066 92.7945C440.752 92.7521 440.517 92.6481 440.158 92.6398ZM923.431 728.182C923.825 728.234 924.025 728.294 924.34 728.336C924.209 727.517 924.326 726.651 923.181 726.817C923.241 727.266 923.371 727.733 923.431 728.182ZM925.793 732.314C925.616 732.731 925.423 733.161 925.202 733.612C926.262 734.075 926.315 733.258 926.701 732.468C926.386 732.426 926.142 732.401 925.793 732.314ZM431.401 87.3797C431.225 87.7968 431.031 88.2269 430.81 88.6781C431.87 89.1413 431.923 88.3239 432.309 87.5343C432.029 87.5366 431.75 87.4667 431.401 87.3797ZM926.156 737.971C926.549 738.024 926.749 738.084 927.064 738.126C926.934 737.307 927.051 736.441 925.906 736.608C926 737.102 926.096 737.522 926.156 737.971ZM427.937 86.9852C428.114 86.5681 428.307 86.1379 428.528 85.6867C427.468 85.2236 427.415 86.041 427.029 86.8306C427.344 86.8729 427.588 86.8982 427.937 86.9852ZM926.973 742.152C927.367 742.205 927.567 742.265 927.882 742.307C927.752 741.488 927.868 740.622 926.724 740.789C926.784 741.238 926.914 741.703 926.973 742.152ZM424.121 85.0918C424.297 84.6747 424.491 84.2446 424.712 83.7933C423.652 83.3302 423.599 84.1476 423.212 84.9372C423.482 85.0136 423.761 85.0835 424.121 85.0918ZM935.999 788.184C936.175 787.767 936.369 787.336 936.59 786.885C935.53 786.422 935.477 787.239 935.09 788.029C935.405 788.071 935.65 788.097 935.999 788.184ZM398.989 181.698C398.64 181.611 397.896 181.967 397.581 181.924C397.711 182.743 397.595 183.61 398.739 183.443C398.68 182.994 399.049 182.147 398.989 181.698ZM841.223 855.684C841.276 855.29 841.272 855.082 841.314 854.767C840.495 854.897 839.648 854.766 839.815 855.911C840.308 855.817 840.774 855.744 841.223 855.684Z" fill="black"/>
</svg>
